<svg xmlns="http://www.w3.org/2000/svg" viewBox="0 0 1200 800" preserveAspectRatio="xMidYMid slice"><defs><linearGradient id="sky97" x1="0" y1="0" x2="0" y2="1"><stop offset="0%" stop-color="#E7EFE4"/><stop offset="55%" stop-color="#A9C6AE"/><stop offset="100%" stop-color="#3E6B57"/></linearGradient><radialGradient id="sun97" cx="50%" cy="50%" r="50%"><stop offset="0%" stop-color="#F3FBEFf2"/><stop offset="100%" stop-color="#F3FBEF00"/></radialGradient></defs><rect width="1200" height="800" fill="url(#sky97)"/><circle cx="360" cy="208" r="230" fill="url(#sun97)"/><circle cx="360" cy="208" r="46" fill="#F3FBEFe5"/><path d="M0,800 L0,383.9 L0.0,383.9 L85.7,450.3 L171.4,374.4 L257.1,436.2 L342.9,438.8 L428.6,425.5 L514.3,441.5 L600.0,379.3 L685.7,494.9 L771.4,470.3 L857.1,388.5 L942.9,332.0 L1028.6,379.6 L1114.3,421.8 L1200.0,460.7 L1200,800 Z" fill="#173E32" opacity="0.35"/><path d="M0,800 L0,446.0 L0.0,446.0 L85.7,539.3 L171.4,612.6 L257.1,578.1 L342.9,545.8 L428.6,481.2 L514.3,574.4 L600.0,561.8 L685.7,485.4 L771.4,522.1 L857.1,415.5 L942.9,575.7 L1028.6,612.2 L1114.3,532.0 L1200.0,520.5 L1200,800 Z" fill="#173E32" opacity="0.60"/><path d="M815,475 Q840,421 857,415 Q874,421 899,475 Q857,445 815,475 Z" fill="#F7FAFC" opacity="0.9"/><path d="M0,800 L0,736.6 L0.0,736.6 L85.7,607.4 L171.4,656.6 L257.1,704.3 L342.9,611.3 L428.6,544.8 L514.3,641.2 L600.0,608.1 L685.7,634.8 L771.4,673.0 L857.1,687.7 L942.9,609.0 L1028.6,583.3 L1114.3,565.0 L1200.0,684.2 L1200,800 Z" fill="#173E32" opacity="1.00"/><rect width="1200" height="800" fill="#0C1A15" opacity="0.05"/></svg>