<svg xmlns="http://www.w3.org/2000/svg" viewBox="0 0 1200 800" preserveAspectRatio="xMidYMid slice"><defs><linearGradient id="sky91" x1="0" y1="0" x2="0" y2="1"><stop offset="0%" stop-color="#F6C88B"/><stop offset="55%" stop-color="#E88B6A"/><stop offset="100%" stop-color="#4A3A5A"/></linearGradient><radialGradient id="sun91" cx="50%" cy="50%" r="50%"><stop offset="0%" stop-color="#FFE9C2f2"/><stop offset="100%" stop-color="#FFE9C200"/></radialGradient></defs><rect width="1200" height="800" fill="url(#sky91)"/><circle cx="864" cy="240" r="230" fill="url(#sun91)"/><circle cx="864" cy="240" r="46" fill="#FFE9C2e5"/><path d="M0,800 L0,360.7 L0.0,360.7 L85.7,354.5 L171.4,414.8 L257.1,343.1 L342.9,466.8 L428.6,471.2 L514.3,472.7 L600.0,439.1 L685.7,481.7 L771.4,382.6 L857.1,414.4 L942.9,370.8 L1028.6,389.3 L1114.3,469.3 L1200.0,383.8 L1200,800 Z" fill="#2A2438" opacity="0.35"/><path d="M0,800 L0,527.6 L0.0,527.6 L85.7,487.4 L171.4,521.8 L257.1,518.7 L342.9,410.5 L428.6,496.8 L514.3,611.8 L600.0,548.3 L685.7,615.7 L771.4,602.7 L857.1,406.7 L942.9,416.8 L1028.6,530.0 L1114.3,646.7 L1200.0,538.8 L1200,800 Z" fill="#2A2438" opacity="0.60"/><path d="M301,471 Q326,417 343,411 Q360,417 385,471 Q343,441 301,471 Z" fill="#F7FAFC" opacity="0.9"/><path d="M815,467 Q840,413 857,407 Q874,413 899,467 Q857,437 815,467 Z" fill="#F7FAFC" opacity="0.9"/><path d="M901,477 Q926,423 943,417 Q960,423 985,477 Q943,447 901,477 Z" fill="#F7FAFC" opacity="0.9"/><path d="M0,800 L0,603.3 L0.0,603.3 L85.7,659.0 L171.4,609.1 L257.1,725.3 L342.9,696.0 L428.6,620.8 L514.3,642.5 L600.0,598.1 L685.7,707.1 L771.4,658.7 L857.1,615.8 L942.9,603.3 L1028.6,631.3 L1114.3,635.6 L1200.0,692.1 L1200,800 Z" fill="#2A2438" opacity="1.00"/><rect width="1200" height="800" fill="#0C1A15" opacity="0.05"/></svg>