<svg xmlns="http://www.w3.org/2000/svg" viewBox="0 0 1200 800" preserveAspectRatio="xMidYMid slice"><defs><linearGradient id="sky101" x1="0" y1="0" x2="0" y2="1"><stop offset="0%" stop-color="#3A4A78"/><stop offset="55%" stop-color="#5B4A78"/><stop offset="100%" stop-color="#241A34"/></linearGradient><radialGradient id="sun101" cx="50%" cy="50%" r="50%"><stop offset="0%" stop-color="#DCC8FFf2"/><stop offset="100%" stop-color="#DCC8FF00"/></radialGradient></defs><rect width="1200" height="800" fill="url(#sky101)"/><circle cx="21" cy="253" r="0.9" fill="#fff" opacity="0.75"/><circle cx="556" cy="1" r="1.5" fill="#fff" opacity="0.62"/><circle cx="1005" cy="368" r="0.6" fill="#fff" opacity="0.58"/><circle cx="761" cy="112" r="1.0" fill="#fff" opacity="0.82"/><circle cx="718" cy="110" r="1.2" fill="#fff" opacity="0.46"/><circle cx="787" cy="178" r="1.1" fill="#fff" opacity="0.54"/><circle cx="736" cy="198" r="0.6" fill="#fff" opacity="0.67"/><circle cx="545" cy="185" r="1.4" fill="#fff" opacity="0.67"/><circle cx="601" cy="4" r="1.2" fill="#fff" opacity="0.50"/><circle cx="722" cy="2" r="1.1" fill="#fff" opacity="0.58"/><circle cx="976" cy="23" r="0.8" fill="#fff" opacity="0.40"/><circle cx="1107" cy="214" r="1.4" fill="#fff" opacity="0.62"/><circle cx="240" cy="368" r="1.1" fill="#fff" opacity="0.56"/><circle cx="967" cy="41" r="1.5" fill="#fff" opacity="0.76"/><circle cx="9" cy="344" r="1.2" fill="#fff" opacity="0.87"/><circle cx="647" cy="268" r="1.4" fill="#fff" opacity="0.74"/><circle cx="715" cy="117" r="0.7" fill="#fff" opacity="0.52"/><circle cx="686" cy="143" r="1.2" fill="#fff" opacity="0.60"/><circle cx="240" cy="15" r="0.9" fill="#fff" opacity="0.81"/><circle cx="415" cy="33" r="0.6" fill="#fff" opacity="0.90"/><circle cx="49" cy="35" r="0.6" fill="#fff" opacity="0.87"/><circle cx="126" cy="60" r="0.9" fill="#fff" opacity="0.71"/><circle cx="1193" cy="361" r="0.8" fill="#fff" opacity="0.69"/><circle cx="99" cy="294" r="0.5" fill="#fff" opacity="0.47"/><circle cx="274" cy="372" r="0.9" fill="#fff" opacity="0.56"/><circle cx="346" cy="201" r="0.8" fill="#fff" opacity="0.76"/><circle cx="251" cy="216" r="1.3" fill="#fff" opacity="0.79"/><circle cx="450" cy="157" r="1.4" fill="#fff" opacity="0.30"/><circle cx="838" cy="54" r="0.8" fill="#fff" opacity="0.30"/><circle cx="809" cy="11" r="0.8" fill="#fff" opacity="0.79"/><circle cx="1078" cy="364" r="0.5" fill="#fff" opacity="0.59"/><circle cx="355" cy="185" r="1.1" fill="#fff" opacity="0.55"/><circle cx="719" cy="99" r="1.5" fill="#fff" opacity="0.41"/><circle cx="650" cy="184" r="1.3" fill="#fff" opacity="0.73"/><circle cx="59" cy="380" r="0.5" fill="#fff" opacity="0.50"/><circle cx="111" cy="395" r="0.8" fill="#fff" opacity="0.78"/><circle cx="886" cy="166" r="1.2" fill="#fff" opacity="0.85"/><circle cx="584" cy="35" r="1.1" fill="#fff" opacity="0.57"/><circle cx="991" cy="299" r="1.0" fill="#fff" opacity="0.36"/><circle cx="31" cy="19" r="1.6" fill="#fff" opacity="0.36"/><circle cx="477" cy="345" r="1.4" fill="#fff" opacity="0.78"/><circle cx="890" cy="300" r="0.9" fill="#fff" opacity="0.50"/><circle cx="197" cy="185" r="1.1" fill="#fff" opacity="0.87"/><circle cx="941" cy="322" r="0.6" fill="#fff" opacity="0.58"/><circle cx="602" cy="279" r="1.1" fill="#fff" opacity="0.71"/><circle cx="1044" cy="173" r="1.4" fill="#fff" opacity="0.54"/><circle cx="970" cy="115" r="1.3" fill="#fff" opacity="0.56"/><circle cx="712" cy="353" r="0.5" fill="#fff" opacity="0.59"/><circle cx="932" cy="347" r="0.7" fill="#fff" opacity="0.48"/><circle cx="898" cy="20" r="1.1" fill="#fff" opacity="0.61"/><circle cx="224" cy="213" r="0.6" fill="#fff" opacity="0.74"/><circle cx="459" cy="372" r="1.2" fill="#fff" opacity="0.69"/><circle cx="827" cy="55" r="0.6" fill="#fff" opacity="0.66"/><circle cx="689" cy="366" r="1.2" fill="#fff" opacity="0.57"/><circle cx="661" cy="263" r="1.1" fill="#fff" opacity="0.64"/><circle cx="494" cy="13" r="0.8" fill="#fff" opacity="0.47"/><circle cx="806" cy="132" r="1.4" fill="#fff" opacity="0.35"/><circle cx="428" cy="270" r="0.8" fill="#fff" opacity="0.32"/><circle cx="1185" cy="395" r="0.8" fill="#fff" opacity="0.67"/><circle cx="358" cy="170" r="1.2" fill="#fff" opacity="0.68"/><circle cx="264" cy="224" r="230" fill="url(#sun101)"/><circle cx="264" cy="224" r="46" fill="#DCC8FFe5"/><path d="M0,800 L0,440.0 L0.0,440.0 L85.7,399.0 L171.4,507.9 L257.1,490.5 L342.9,407.8 L428.6,418.3 L514.3,348.1 L600.0,354.9 L685.7,380.4 L771.4,456.0 L857.1,401.7 L942.9,508.6 L1028.6,370.6 L1114.3,369.0 L1200.0,337.5 L1200,800 Z" fill="#171426" opacity="0.35"/><path d="M0,800 L0,599.2 L0.0,599.2 L85.7,559.3 L171.4,549.0 L257.1,495.8 L342.9,533.5 L428.6,582.3 L514.3,561.6 L600.0,405.6 L685.7,457.5 L771.4,625.1 L857.1,493.3 L942.9,560.9 L1028.6,467.8 L1114.3,522.4 L1200.0,593.9 L1200,800 Z" fill="#171426" opacity="0.60"/><path d="M558,466 Q583,412 600,406 Q617,412 642,466 Q600,436 558,466 Z" fill="#F7FAFC" opacity="0.9"/><path d="M0,800 L0,605.4 L0.0,605.4 L85.7,684.3 L171.4,707.8 L257.1,634.4 L342.9,646.7 L428.6,639.7 L514.3,570.7 L600.0,690.2 L685.7,693.7 L771.4,628.9 L857.1,640.4 L942.9,645.4 L1028.6,721.4 L1114.3,631.9 L1200.0,592.2 L1200,800 Z" fill="#171426" opacity="1.00"/><rect x="0" y="688" width="1200" height="112" fill="#241A348c"/><rect x="0" y="688" width="1200" height="2" fill="#ffffff" opacity="0.25"/><rect width="1200" height="800" fill="#0C1A15" opacity="0.05"/></svg>