<svg xmlns="http://www.w3.org/2000/svg" viewBox="0 0 1200 800" preserveAspectRatio="xMidYMid slice"><defs><linearGradient id="sky137" x1="0" y1="0" x2="0" y2="1"><stop offset="0%" stop-color="#3A4A78"/><stop offset="55%" stop-color="#5B4A78"/><stop offset="100%" stop-color="#241A34"/></linearGradient><radialGradient id="sun137" cx="50%" cy="50%" r="50%"><stop offset="0%" stop-color="#DCC8FFf2"/><stop offset="100%" stop-color="#DCC8FF00"/></radialGradient></defs><rect width="1200" height="800" fill="url(#sky137)"/><circle cx="570" cy="44" r="1.0" fill="#fff" opacity="0.44"/><circle cx="655" cy="351" r="1.4" fill="#fff" opacity="0.86"/><circle cx="1146" cy="270" r="0.5" fill="#fff" opacity="0.62"/><circle cx="18" cy="74" r="0.7" fill="#fff" opacity="0.66"/><circle cx="553" cy="272" r="1.4" fill="#fff" opacity="0.81"/><circle cx="1081" cy="74" r="1.1" fill="#fff" opacity="0.68"/><circle cx="833" cy="36" r="1.4" fill="#fff" opacity="0.65"/><circle cx="104" cy="195" r="0.9" fill="#fff" opacity="0.69"/><circle cx="94" cy="241" r="1.3" fill="#fff" opacity="0.46"/><circle cx="848" cy="107" r="0.8" fill="#fff" opacity="0.53"/><circle cx="258" cy="86" r="1.1" fill="#fff" opacity="0.43"/><circle cx="736" cy="29" r="1.1" fill="#fff" opacity="0.69"/><circle cx="465" cy="172" r="0.6" fill="#fff" opacity="0.54"/><circle cx="702" cy="164" r="0.6" fill="#fff" opacity="0.33"/><circle cx="389" cy="256" r="0.8" fill="#fff" opacity="0.80"/><circle cx="286" cy="370" r="1.5" fill="#fff" opacity="0.74"/><circle cx="420" cy="393" r="1.3" fill="#fff" opacity="0.74"/><circle cx="84" cy="44" r="1.2" fill="#fff" opacity="0.63"/><circle cx="63" cy="203" r="1.4" fill="#fff" opacity="0.46"/><circle cx="522" cy="314" r="1.5" fill="#fff" opacity="0.37"/><circle cx="475" cy="94" r="1.5" fill="#fff" opacity="0.53"/><circle cx="564" cy="270" r="0.6" fill="#fff" opacity="0.76"/><circle cx="631" cy="20" r="0.7" fill="#fff" opacity="0.84"/><circle cx="379" cy="289" r="1.2" fill="#fff" opacity="0.88"/><circle cx="176" cy="166" r="1.2" fill="#fff" opacity="0.84"/><circle cx="429" cy="232" r="0.7" fill="#fff" opacity="0.73"/><circle cx="472" cy="212" r="1.5" fill="#fff" opacity="0.37"/><circle cx="744" cy="86" r="1.3" fill="#fff" opacity="0.73"/><circle cx="151" cy="91" r="1.4" fill="#fff" opacity="0.38"/><circle cx="827" cy="213" r="0.5" fill="#fff" opacity="0.82"/><circle cx="344" cy="296" r="1.1" fill="#fff" opacity="0.42"/><circle cx="606" cy="317" r="1.0" fill="#fff" opacity="0.88"/><circle cx="329" cy="241" r="1.1" fill="#fff" opacity="0.71"/><circle cx="189" cy="322" r="1.1" fill="#fff" opacity="0.88"/><circle cx="771" cy="13" r="0.9" fill="#fff" opacity="0.36"/><circle cx="296" cy="299" r="0.7" fill="#fff" opacity="0.71"/><circle cx="993" cy="162" r="0.8" fill="#fff" opacity="0.64"/><circle cx="1094" cy="288" r="1.4" fill="#fff" opacity="0.40"/><circle cx="291" cy="280" r="1.0" fill="#fff" opacity="0.57"/><circle cx="68" cy="99" r="1.5" fill="#fff" opacity="0.48"/><circle cx="54" cy="252" r="1.2" fill="#fff" opacity="0.81"/><circle cx="32" cy="382" r="1.6" fill="#fff" opacity="0.49"/><circle cx="1009" cy="64" r="1.4" fill="#fff" opacity="0.79"/><circle cx="1129" cy="222" r="1.2" fill="#fff" opacity="0.52"/><circle cx="458" cy="206" r="1.3" fill="#fff" opacity="0.44"/><circle cx="785" cy="71" r="1.5" fill="#fff" opacity="0.30"/><circle cx="598" cy="360" r="0.7" fill="#fff" opacity="0.34"/><circle cx="177" cy="154" r="1.4" fill="#fff" opacity="0.34"/><circle cx="994" cy="398" r="1.0" fill="#fff" opacity="0.39"/><circle cx="963" cy="183" r="0.9" fill="#fff" opacity="0.40"/><circle cx="154" cy="261" r="1.2" fill="#fff" opacity="0.47"/><circle cx="934" cy="323" r="1.2" fill="#fff" opacity="0.45"/><circle cx="238" cy="133" r="1.1" fill="#fff" opacity="0.47"/><circle cx="1110" cy="101" r="1.1" fill="#fff" opacity="0.60"/><circle cx="855" cy="251" r="0.6" fill="#fff" opacity="0.63"/><circle cx="158" cy="265" r="1.6" fill="#fff" opacity="0.41"/><circle cx="870" cy="268" r="0.9" fill="#fff" opacity="0.32"/><circle cx="745" cy="278" r="0.6" fill="#fff" opacity="0.50"/><circle cx="209" cy="70" r="0.6" fill="#fff" opacity="0.56"/><circle cx="788" cy="57" r="0.7" fill="#fff" opacity="0.36"/><circle cx="264" cy="224" r="230" fill="url(#sun137)"/><circle cx="264" cy="224" r="46" fill="#DCC8FFe5"/><path d="M0,800 L0,329.7 L0.0,329.7 L85.7,389.3 L171.4,489.4 L257.1,399.7 L342.9,422.8 L428.6,482.3 L514.3,476.8 L600.0,404.0 L685.7,454.3 L771.4,437.3 L857.1,405.8 L942.9,370.3 L1028.6,427.5 L1114.3,446.6 L1200.0,367.4 L1200,800 Z" fill="#171426" opacity="0.35"/><path d="M0,800 L0,612.2 L0.0,612.2 L85.7,464.8 L171.4,459.5 L257.1,500.0 L342.9,443.5 L428.6,598.1 L514.3,472.0 L600.0,470.5 L685.7,532.4 L771.4,560.8 L857.1,515.1 L942.9,649.8 L1028.6,623.0 L1114.3,466.7 L1200.0,436.3 L1200,800 Z" fill="#171426" opacity="0.60"/><path d="M1158,496 Q1183,442 1200,436 Q1217,442 1242,496 Q1200,466 1158,496 Z" fill="#F7FAFC" opacity="0.9"/><path d="M0,800 L0,673.1 L0.0,673.1 L85.7,699.0 L171.4,599.1 L257.1,591.5 L342.9,567.6 L428.6,683.8 L514.3,670.3 L600.0,643.2 L685.7,651.3 L771.4,663.9 L857.1,724.7 L942.9,564.2 L1028.6,627.8 L1114.3,727.0 L1200.0,690.6 L1200,800 Z" fill="#171426" opacity="1.00"/><rect x="0" y="688" width="1200" height="112" fill="#241A348c"/><rect x="0" y="688" width="1200" height="2" fill="#ffffff" opacity="0.25"/><rect width="1200" height="800" fill="#0C1A15" opacity="0.05"/></svg>