<svg xmlns="http://www.w3.org/2000/svg" viewBox="0 0 1200 800" preserveAspectRatio="xMidYMid slice"><defs><linearGradient id="sky71" x1="0" y1="0" x2="0" y2="1"><stop offset="0%" stop-color="#E7EFE4"/><stop offset="55%" stop-color="#A9C6AE"/><stop offset="100%" stop-color="#3E6B57"/></linearGradient><radialGradient id="sun71" cx="50%" cy="50%" r="50%"><stop offset="0%" stop-color="#F3FBEFf2"/><stop offset="100%" stop-color="#F3FBEF00"/></radialGradient></defs><rect width="1200" height="800" fill="url(#sky71)"/><circle cx="360" cy="208" r="230" fill="url(#sun71)"/><circle cx="360" cy="208" r="46" fill="#F3FBEFe5"/><path d="M0,800 L0,418.0 L0.0,418.0 L85.7,447.6 L171.4,343.2 L257.1,462.7 L342.9,433.1 L428.6,464.0 L514.3,377.4 L600.0,387.4 L685.7,379.8 L771.4,399.6 L857.1,363.8 L942.9,438.4 L1028.6,376.0 L1114.3,432.2 L1200.0,430.9 L1200,800 Z" fill="#173E32" opacity="0.35"/><path d="M0,800 L0,557.3 L0.0,557.3 L85.7,520.2 L171.4,484.3 L257.1,493.8 L342.9,498.7 L428.6,566.1 L514.3,574.3 L600.0,501.9 L685.7,549.9 L771.4,548.9 L857.1,598.0 L942.9,483.8 L1028.6,469.5 L1114.3,540.3 L1200.0,474.2 L1200,800 Z" fill="#173E32" opacity="0.60"/><path d="M0,800 L0,719.8 L0.0,719.8 L85.7,610.2 L171.4,566.6 L257.1,695.4 L342.9,610.1 L428.6,630.6 L514.3,617.9 L600.0,665.3 L685.7,614.2 L771.4,651.6 L857.1,609.8 L942.9,707.2 L1028.6,594.2 L1114.3,700.4 L1200.0,558.7 L1200,800 Z" fill="#173E32" opacity="1.00"/><rect width="1200" height="800" fill="#0C1A15" opacity="0.05"/></svg>