<svg xmlns="http://www.w3.org/2000/svg" viewBox="0 0 1200 800" preserveAspectRatio="xMidYMid slice"><defs><linearGradient id="sky83" x1="0" y1="0" x2="0" y2="1"><stop offset="0%" stop-color="#3A4A78"/><stop offset="55%" stop-color="#5B4A78"/><stop offset="100%" stop-color="#241A34"/></linearGradient><radialGradient id="sun83" cx="50%" cy="50%" r="50%"><stop offset="0%" stop-color="#DCC8FFf2"/><stop offset="100%" stop-color="#DCC8FF00"/></radialGradient></defs><rect width="1200" height="800" fill="url(#sky83)"/><circle cx="854" cy="73" r="0.8" fill="#fff" opacity="0.53"/><circle cx="7" cy="165" r="1.0" fill="#fff" opacity="0.62"/><circle cx="993" cy="119" r="0.6" fill="#fff" opacity="0.64"/><circle cx="531" cy="177" r="1.6" fill="#fff" opacity="0.60"/><circle cx="950" cy="55" r="1.1" fill="#fff" opacity="0.59"/><circle cx="422" cy="174" r="1.4" fill="#fff" opacity="0.40"/><circle cx="1172" cy="372" r="0.5" fill="#fff" opacity="0.69"/><circle cx="473" cy="92" r="1.6" fill="#fff" opacity="0.35"/><circle cx="354" cy="202" r="1.2" fill="#fff" opacity="0.69"/><circle cx="610" cy="272" r="1.5" fill="#fff" opacity="0.69"/><circle cx="238" cy="354" r="1.2" fill="#fff" opacity="0.53"/><circle cx="840" cy="268" r="1.6" fill="#fff" opacity="0.30"/><circle cx="16" cy="29" r="1.5" fill="#fff" opacity="0.56"/><circle cx="5" cy="24" r="1.1" fill="#fff" opacity="0.46"/><circle cx="532" cy="94" r="1.0" fill="#fff" opacity="0.33"/><circle cx="1129" cy="134" r="1.5" fill="#fff" opacity="0.78"/><circle cx="0" cy="323" r="1.0" fill="#fff" opacity="0.53"/><circle cx="381" cy="385" r="0.6" fill="#fff" opacity="0.49"/><circle cx="899" cy="62" r="1.2" fill="#fff" opacity="0.50"/><circle cx="1145" cy="198" r="1.2" fill="#fff" opacity="0.88"/><circle cx="278" cy="359" r="0.8" fill="#fff" opacity="0.41"/><circle cx="1067" cy="211" r="0.9" fill="#fff" opacity="0.77"/><circle cx="584" cy="61" r="0.7" fill="#fff" opacity="0.35"/><circle cx="507" cy="142" r="1.1" fill="#fff" opacity="0.38"/><circle cx="531" cy="278" r="1.0" fill="#fff" opacity="0.47"/><circle cx="75" cy="119" r="1.3" fill="#fff" opacity="0.46"/><circle cx="962" cy="57" r="1.1" fill="#fff" opacity="0.39"/><circle cx="961" cy="149" r="0.8" fill="#fff" opacity="0.87"/><circle cx="629" cy="326" r="1.0" fill="#fff" opacity="0.67"/><circle cx="1114" cy="341" r="0.7" fill="#fff" opacity="0.52"/><circle cx="635" cy="88" r="0.5" fill="#fff" opacity="0.42"/><circle cx="747" cy="138" r="0.9" fill="#fff" opacity="0.43"/><circle cx="1161" cy="121" r="0.8" fill="#fff" opacity="0.61"/><circle cx="877" cy="6" r="1.0" fill="#fff" opacity="0.90"/><circle cx="864" cy="30" r="1.4" fill="#fff" opacity="0.50"/><circle cx="981" cy="199" r="0.7" fill="#fff" opacity="0.53"/><circle cx="5" cy="120" r="1.1" fill="#fff" opacity="0.36"/><circle cx="709" cy="354" r="1.4" fill="#fff" opacity="0.39"/><circle cx="167" cy="203" r="1.2" fill="#fff" opacity="0.68"/><circle cx="975" cy="101" r="1.3" fill="#fff" opacity="0.39"/><circle cx="875" cy="136" r="1.2" fill="#fff" opacity="0.53"/><circle cx="1040" cy="168" r="0.9" fill="#fff" opacity="0.76"/><circle cx="265" cy="118" r="0.6" fill="#fff" opacity="0.41"/><circle cx="1192" cy="394" r="0.8" fill="#fff" opacity="0.51"/><circle cx="418" cy="375" r="1.3" fill="#fff" opacity="0.71"/><circle cx="654" cy="113" r="0.8" fill="#fff" opacity="0.60"/><circle cx="953" cy="352" r="0.8" fill="#fff" opacity="0.83"/><circle cx="493" cy="193" r="1.0" fill="#fff" opacity="0.39"/><circle cx="400" cy="161" r="0.9" fill="#fff" opacity="0.42"/><circle cx="163" cy="4" r="0.5" fill="#fff" opacity="0.90"/><circle cx="1199" cy="227" r="0.7" fill="#fff" opacity="0.73"/><circle cx="994" cy="211" r="1.4" fill="#fff" opacity="0.47"/><circle cx="1026" cy="399" r="1.4" fill="#fff" opacity="0.67"/><circle cx="586" cy="53" r="0.7" fill="#fff" opacity="0.76"/><circle cx="631" cy="308" r="0.8" fill="#fff" opacity="0.72"/><circle cx="117" cy="212" r="1.4" fill="#fff" opacity="0.45"/><circle cx="1098" cy="169" r="0.9" fill="#fff" opacity="0.47"/><circle cx="212" cy="279" r="0.5" fill="#fff" opacity="0.72"/><circle cx="532" cy="392" r="1.1" fill="#fff" opacity="0.36"/><circle cx="412" cy="204" r="1.4" fill="#fff" opacity="0.54"/><circle cx="264" cy="224" r="230" fill="url(#sun83)"/><circle cx="264" cy="224" r="46" fill="#DCC8FFe5"/><path d="M0,800 L0,442.6 L0.0,442.6 L85.7,491.2 L171.4,369.9 L257.1,391.3 L342.9,329.7 L428.6,409.1 L514.3,353.1 L600.0,387.4 L685.7,477.2 L771.4,380.9 L857.1,392.5 L942.9,399.2 L1028.6,451.5 L1114.3,389.1 L1200.0,405.9 L1200,800 Z" fill="#171426" opacity="0.35"/><path d="M0,800 L0,547.2 L0.0,547.2 L85.7,416.2 L171.4,597.2 L257.1,530.2 L342.9,463.5 L428.6,436.7 L514.3,492.5 L600.0,532.9 L685.7,604.7 L771.4,621.0 L857.1,470.1 L942.9,570.0 L1028.6,420.3 L1114.3,577.3 L1200.0,548.4 L1200,800 Z" fill="#171426" opacity="0.60"/><path d="M44,476 Q69,422 86,416 Q103,422 128,476 Q86,446 44,476 Z" fill="#F7FAFC" opacity="0.9"/><path d="M387,497 Q412,443 429,437 Q445,443 471,497 Q429,467 387,497 Z" fill="#F7FAFC" opacity="0.9"/><path d="M987,480 Q1012,426 1029,420 Q1045,426 1071,480 Q1029,450 987,480 Z" fill="#F7FAFC" opacity="0.9"/><path d="M0,800 L0,600.5 L0.0,600.5 L85.7,672.6 L171.4,691.2 L257.1,568.6 L342.9,725.6 L428.6,596.1 L514.3,596.6 L600.0,692.9 L685.7,638.5 L771.4,677.6 L857.1,541.2 L942.9,690.9 L1028.6,666.3 L1114.3,565.6 L1200.0,551.5 L1200,800 Z" fill="#171426" opacity="1.00"/><rect x="0" y="688" width="1200" height="112" fill="#241A348c"/><rect x="0" y="688" width="1200" height="2" fill="#ffffff" opacity="0.25"/><rect width="1200" height="800" fill="#0C1A15" opacity="0.05"/></svg>