<svg xmlns="http://www.w3.org/2000/svg" viewBox="0 0 1200 800" preserveAspectRatio="xMidYMid slice"><defs><linearGradient id="sky79" x1="0" y1="0" x2="0" y2="1"><stop offset="0%" stop-color="#F3E6C8"/><stop offset="55%" stop-color="#CDE0A8"/><stop offset="100%" stop-color="#6E9A5A"/></linearGradient><radialGradient id="sun79" cx="50%" cy="50%" r="50%"><stop offset="0%" stop-color="#FFF4D6f2"/><stop offset="100%" stop-color="#FFF4D600"/></radialGradient></defs><rect width="1200" height="800" fill="url(#sky79)"/><circle cx="888" cy="224" r="230" fill="url(#sun79)"/><circle cx="888" cy="224" r="46" fill="#FFF4D6e5"/><path d="M0,800 L0,353.9 L0.0,353.9 L85.7,369.3 L171.4,342.0 L257.1,365.0 L342.9,446.2 L428.6,388.1 L514.3,423.1 L600.0,396.4 L685.7,488.6 L771.4,401.9 L857.1,363.4 L942.9,376.7 L1028.6,446.9 L1114.3,401.3 L1200.0,481.2 L1200,800 Z" fill="#3C5A2E" opacity="0.35"/><path d="M0,800 L0,475.3 L0.0,475.3 L85.7,561.8 L171.4,549.9 L257.1,595.9 L342.9,548.2 L428.6,564.1 L514.3,581.8 L600.0,501.7 L685.7,613.2 L771.4,490.4 L857.1,508.8 L942.9,450.6 L1028.6,522.6 L1114.3,621.4 L1200.0,460.0 L1200,800 Z" fill="#3C5A2E" opacity="0.60"/><path d="M0,800 L0,586.3 L0.0,586.3 L85.7,627.1 L171.4,584.6 L257.1,735.7 L342.9,581.5 L428.6,603.5 L514.3,694.4 L600.0,735.0 L685.7,640.4 L771.4,640.0 L857.1,660.3 L942.9,723.5 L1028.6,579.8 L1114.3,642.3 L1200.0,673.9 L1200,800 Z" fill="#3C5A2E" opacity="1.00"/><rect width="1200" height="800" fill="#0C1A15" opacity="0.05"/></svg>