<svg xmlns="http://www.w3.org/2000/svg" viewBox="0 0 1200 800" preserveAspectRatio="xMidYMid slice"><defs><linearGradient id="sky67" x1="0" y1="0" x2="0" y2="1"><stop offset="0%" stop-color="#DDEBF2"/><stop offset="55%" stop-color="#9FC4D6"/><stop offset="100%" stop-color="#4A7C8C"/></linearGradient><radialGradient id="sun67" cx="50%" cy="50%" r="50%"><stop offset="0%" stop-color="#F4FBFFf2"/><stop offset="100%" stop-color="#F4FBFF00"/></radialGradient></defs><rect width="1200" height="800" fill="url(#sky67)"/><circle cx="336" cy="192" r="230" fill="url(#sun67)"/><circle cx="336" cy="192" r="46" fill="#F4FBFFe5"/><path d="M0,800 L0,332.5 L0.0,332.5 L85.7,425.6 L171.4,463.7 L257.1,403.7 L342.9,496.0 L428.6,433.6 L514.3,457.4 L600.0,484.5 L685.7,365.1 L771.4,327.4 L857.1,343.2 L942.9,332.9 L1028.6,407.6 L1114.3,381.3 L1200.0,387.0 L1200,800 Z" fill="#22414C" opacity="0.35"/><path d="M0,800 L0,629.6 L0.0,629.6 L85.7,523.9 L171.4,522.7 L257.1,431.4 L342.9,586.9 L428.6,469.5 L514.3,592.9 L600.0,572.4 L685.7,557.4 L771.4,476.7 L857.1,483.7 L942.9,524.6 L1028.6,487.0 L1114.3,513.5 L1200.0,468.0 L1200,800 Z" fill="#22414C" opacity="0.60"/><path d="M215,491 Q240,437 257,431 Q274,437 299,491 Q257,461 215,491 Z" fill="#F7FAFC" opacity="0.9"/><path d="M0,800 L0,583.1 L0.0,583.1 L85.7,617.4 L171.4,673.3 L257.1,655.3 L342.9,629.6 L428.6,617.8 L514.3,668.3 L600.0,611.0 L685.7,551.1 L771.4,583.7 L857.1,712.3 L942.9,579.6 L1028.6,587.9 L1114.3,613.7 L1200.0,677.7 L1200,800 Z" fill="#22414C" opacity="1.00"/><rect x="0" y="688" width="1200" height="112" fill="#4A7C8C8c"/><rect x="0" y="688" width="1200" height="2" fill="#ffffff" opacity="0.25"/><rect width="1200" height="800" fill="#0C1A15" opacity="0.05"/></svg>