<svg xmlns="http://www.w3.org/2000/svg" viewBox="0 0 1200 800" preserveAspectRatio="xMidYMid slice"><defs><linearGradient id="sky61" x1="0" y1="0" x2="0" y2="1"><stop offset="0%" stop-color="#EAF2F8"/><stop offset="55%" stop-color="#CBDDEA"/><stop offset="100%" stop-color="#8FB0C6"/></linearGradient><radialGradient id="sun61" cx="50%" cy="50%" r="50%"><stop offset="0%" stop-color="#FFFFFFf2"/><stop offset="100%" stop-color="#FFFFFF00"/></radialGradient></defs><rect width="1200" height="800" fill="url(#sky61)"/><circle cx="840" cy="176" r="230" fill="url(#sun61)"/><circle cx="840" cy="176" r="46" fill="#FFFFFFe5"/><path d="M0,800 L0,388.2 L0.0,388.2 L85.7,398.6 L171.4,447.6 L257.1,398.3 L342.9,414.0 L428.6,470.9 L514.3,433.6 L600.0,398.4 L685.7,386.4 L771.4,365.0 L857.1,344.3 L942.9,423.2 L1028.6,479.0 L1114.3,465.8 L1200.0,462.7 L1200,800 Z" fill="#4A6076" opacity="0.35"/><path d="M0,800 L0,556.8 L0.0,556.8 L85.7,579.0 L171.4,502.6 L257.1,568.7 L342.9,417.4 L428.6,629.3 L514.3,600.6 L600.0,601.7 L685.7,563.9 L771.4,438.3 L857.1,571.5 L942.9,578.8 L1028.6,499.6 L1114.3,601.6 L1200.0,489.9 L1200,800 Z" fill="#4A6076" opacity="0.60"/><path d="M301,477 Q326,423 343,417 Q360,423 385,477 Q343,447 301,477 Z" fill="#F7FAFC" opacity="0.9"/><path d="M729,498 Q755,444 771,438 Q788,444 813,498 Q771,468 729,498 Z" fill="#F7FAFC" opacity="0.9"/><path d="M0,800 L0,544.6 L0.0,544.6 L85.7,666.8 L171.4,743.8 L257.1,640.6 L342.9,682.1 L428.6,616.3 L514.3,689.3 L600.0,717.8 L685.7,562.1 L771.4,557.5 L857.1,619.3 L942.9,572.7 L1028.6,598.9 L1114.3,574.4 L1200.0,607.0 L1200,800 Z" fill="#4A6076" opacity="1.00"/><rect width="1200" height="800" fill="#0C1A15" opacity="0.05"/></svg>