<svg xmlns="http://www.w3.org/2000/svg" viewBox="0 0 1200 800" preserveAspectRatio="xMidYMid slice"><defs><linearGradient id="sky73" x1="0" y1="0" x2="0" y2="1"><stop offset="0%" stop-color="#DDEBF2"/><stop offset="55%" stop-color="#9FC4D6"/><stop offset="100%" stop-color="#4A7C8C"/></linearGradient><radialGradient id="sun73" cx="50%" cy="50%" r="50%"><stop offset="0%" stop-color="#F4FBFFf2"/><stop offset="100%" stop-color="#F4FBFF00"/></radialGradient></defs><rect width="1200" height="800" fill="url(#sky73)"/><circle cx="336" cy="192" r="230" fill="url(#sun73)"/><circle cx="336" cy="192" r="46" fill="#F4FBFFe5"/><path d="M0,800 L0,366.2 L0.0,366.2 L85.7,388.5 L171.4,401.4 L257.1,402.3 L342.9,439.1 L428.6,439.2 L514.3,445.8 L600.0,391.0 L685.7,359.8 L771.4,362.4 L857.1,427.3 L942.9,326.3 L1028.6,387.5 L1114.3,416.5 L1200.0,448.6 L1200,800 Z" fill="#22414C" opacity="0.35"/><path d="M0,800 L0,525.1 L0.0,525.1 L85.7,644.7 L171.4,486.0 L257.1,466.6 L342.9,478.8 L428.6,474.2 L514.3,520.9 L600.0,621.8 L685.7,527.0 L771.4,421.3 L857.1,560.9 L942.9,483.8 L1028.6,614.1 L1114.3,474.9 L1200.0,546.2 L1200,800 Z" fill="#22414C" opacity="0.60"/><path d="M729,481 Q755,427 771,421 Q788,427 813,481 Q771,451 729,481 Z" fill="#F7FAFC" opacity="0.9"/><path d="M0,800 L0,569.0 L0.0,569.0 L85.7,587.7 L171.4,601.9 L257.1,626.7 L342.9,653.3 L428.6,558.5 L514.3,635.1 L600.0,617.3 L685.7,695.4 L771.4,614.6 L857.1,631.3 L942.9,648.3 L1028.6,669.3 L1114.3,597.5 L1200.0,715.3 L1200,800 Z" fill="#22414C" opacity="1.00"/><rect x="0" y="688" width="1200" height="112" fill="#4A7C8C8c"/><rect x="0" y="688" width="1200" height="2" fill="#ffffff" opacity="0.25"/><rect width="1200" height="800" fill="#0C1A15" opacity="0.05"/></svg>