<svg xmlns="http://www.w3.org/2000/svg" viewBox="0 0 1200 800" preserveAspectRatio="xMidYMid slice"><defs><linearGradient id="sky11" x1="0" y1="0" x2="0" y2="1"><stop offset="0%" stop-color="#F6C88B"/><stop offset="55%" stop-color="#E88B6A"/><stop offset="100%" stop-color="#4A3A5A"/></linearGradient><radialGradient id="sun11" cx="50%" cy="50%" r="50%"><stop offset="0%" stop-color="#FFE9C2f2"/><stop offset="100%" stop-color="#FFE9C200"/></radialGradient></defs><rect width="1200" height="800" fill="url(#sky11)"/><circle cx="864" cy="240" r="230" fill="url(#sun11)"/><circle cx="864" cy="240" r="46" fill="#FFE9C2e5"/><path d="M0,800 L0,381.3 L0.0,381.3 L85.7,403.0 L171.4,470.8 L257.1,425.4 L342.9,443.5 L428.6,454.4 L514.3,385.5 L600.0,412.3 L685.7,412.4 L771.4,429.0 L857.1,338.1 L942.9,384.3 L1028.6,373.3 L1114.3,485.9 L1200.0,469.1 L1200,800 Z" fill="#2A2438" opacity="0.35"/><path d="M0,800 L0,492.9 L0.0,492.9 L85.7,585.0 L171.4,538.4 L257.1,571.3 L342.9,471.2 L428.6,505.8 L514.3,605.6 L600.0,566.9 L685.7,466.5 L771.4,527.2 L857.1,504.6 L942.9,607.6 L1028.6,491.0 L1114.3,477.3 L1200.0,567.8 L1200,800 Z" fill="#2A2438" opacity="0.60"/><path d="M0,800 L0,612.8 L0.0,612.8 L85.7,681.2 L171.4,744.9 L257.1,612.4 L342.9,651.0 L428.6,668.4 L514.3,697.6 L600.0,580.0 L685.7,532.3 L771.4,621.0 L857.1,711.4 L942.9,599.0 L1028.6,608.3 L1114.3,614.0 L1200.0,727.1 L1200,800 Z" fill="#2A2438" opacity="1.00"/><rect width="1200" height="800" fill="#0C1A15" opacity="0.05"/></svg>