<svg xmlns="http://www.w3.org/2000/svg" viewBox="0 0 1200 800" preserveAspectRatio="xMidYMid slice"><defs><linearGradient id="sky23" x1="0" y1="0" x2="0" y2="1"><stop offset="0%" stop-color="#DDEBF2"/><stop offset="55%" stop-color="#9FC4D6"/><stop offset="100%" stop-color="#4A7C8C"/></linearGradient><radialGradient id="sun23" cx="50%" cy="50%" r="50%"><stop offset="0%" stop-color="#F4FBFFf2"/><stop offset="100%" stop-color="#F4FBFF00"/></radialGradient></defs><rect width="1200" height="800" fill="url(#sky23)"/><circle cx="336" cy="192" r="230" fill="url(#sun23)"/><circle cx="336" cy="192" r="46" fill="#F4FBFFe5"/><path d="M0,800 L0,451.8 L0.0,451.8 L85.7,451.1 L171.4,452.2 L257.1,356.8 L342.9,446.2 L428.6,432.7 L514.3,444.8 L600.0,374.5 L685.7,363.9 L771.4,384.3 L857.1,349.3 L942.9,391.3 L1028.6,349.0 L1114.3,375.7 L1200.0,472.9 L1200,800 Z" fill="#22414C" opacity="0.35"/><path d="M0,800 L0,600.0 L0.0,600.0 L85.7,507.7 L171.4,477.6 L257.1,515.4 L342.9,417.6 L428.6,580.8 L514.3,608.9 L600.0,472.7 L685.7,552.4 L771.4,493.4 L857.1,529.2 L942.9,623.7 L1028.6,651.5 L1114.3,530.2 L1200.0,570.8 L1200,800 Z" fill="#22414C" opacity="0.60"/><path d="M301,478 Q326,424 343,418 Q360,424 385,478 Q343,448 301,478 Z" fill="#F7FAFC" opacity="0.9"/><path d="M0,800 L0,626.5 L0.0,626.5 L85.7,592.0 L171.4,717.8 L257.1,628.2 L342.9,617.8 L428.6,594.4 L514.3,651.6 L600.0,734.9 L685.7,550.4 L771.4,613.6 L857.1,623.2 L942.9,631.9 L1028.6,691.6 L1114.3,598.3 L1200.0,686.2 L1200,800 Z" fill="#22414C" opacity="1.00"/><rect x="0" y="688" width="1200" height="112" fill="#4A7C8C8c"/><rect x="0" y="688" width="1200" height="2" fill="#ffffff" opacity="0.25"/><rect width="1200" height="800" fill="#0C1A15" opacity="0.05"/></svg>