<svg xmlns="http://www.w3.org/2000/svg" viewBox="0 0 1200 800" preserveAspectRatio="xMidYMid slice"><defs><linearGradient id="sky37" x1="0" y1="0" x2="0" y2="1"><stop offset="0%" stop-color="#EAF2F8"/><stop offset="55%" stop-color="#CBDDEA"/><stop offset="100%" stop-color="#8FB0C6"/></linearGradient><radialGradient id="sun37" cx="50%" cy="50%" r="50%"><stop offset="0%" stop-color="#FFFFFFf2"/><stop offset="100%" stop-color="#FFFFFF00"/></radialGradient></defs><rect width="1200" height="800" fill="url(#sky37)"/><circle cx="840" cy="176" r="230" fill="url(#sun37)"/><circle cx="840" cy="176" r="46" fill="#FFFFFFe5"/><path d="M0,800 L0,423.5 L0.0,423.5 L85.7,358.8 L171.4,450.6 L257.1,491.5 L342.9,487.0 L428.6,427.5 L514.3,424.5 L600.0,373.3 L685.7,392.4 L771.4,343.4 L857.1,442.1 L942.9,448.5 L1028.6,413.1 L1114.3,422.9 L1200.0,458.0 L1200,800 Z" fill="#4A6076" opacity="0.35"/><path d="M0,800 L0,547.4 L0.0,547.4 L85.7,586.8 L171.4,408.5 L257.1,466.1 L342.9,625.7 L428.6,593.5 L514.3,479.1 L600.0,481.1 L685.7,560.6 L771.4,504.5 L857.1,467.3 L942.9,634.1 L1028.6,468.8 L1114.3,525.4 L1200.0,516.7 L1200,800 Z" fill="#4A6076" opacity="0.60"/><path d="M129,469 Q155,415 171,409 Q188,415 213,469 Q171,439 129,469 Z" fill="#F7FAFC" opacity="0.9"/><path d="M0,800 L0,539.6 L0.0,539.6 L85.7,689.9 L171.4,608.6 L257.1,614.0 L342.9,643.1 L428.6,708.3 L514.3,655.6 L600.0,616.9 L685.7,541.3 L771.4,653.3 L857.1,640.0 L942.9,671.1 L1028.6,628.6 L1114.3,707.2 L1200.0,646.8 L1200,800 Z" fill="#4A6076" opacity="1.00"/><rect width="1200" height="800" fill="#0C1A15" opacity="0.05"/></svg>