<svg xmlns="http://www.w3.org/2000/svg" viewBox="0 0 1200 800" preserveAspectRatio="xMidYMid slice"><defs><linearGradient id="sky103" x1="0" y1="0" x2="0" y2="1"><stop offset="0%" stop-color="#DDEBF2"/><stop offset="55%" stop-color="#9FC4D6"/><stop offset="100%" stop-color="#4A7C8C"/></linearGradient><radialGradient id="sun103" cx="50%" cy="50%" r="50%"><stop offset="0%" stop-color="#F4FBFFf2"/><stop offset="100%" stop-color="#F4FBFF00"/></radialGradient></defs><rect width="1200" height="800" fill="url(#sky103)"/><circle cx="336" cy="192" r="230" fill="url(#sun103)"/><circle cx="336" cy="192" r="46" fill="#F4FBFFe5"/><path d="M0,800 L0,500.5 L0.0,500.5 L85.7,409.1 L171.4,428.0 L257.1,421.2 L342.9,352.3 L428.6,348.3 L514.3,440.9 L600.0,387.8 L685.7,426.9 L771.4,487.6 L857.1,466.9 L942.9,343.6 L1028.6,329.7 L1114.3,353.6 L1200.0,453.7 L1200,800 Z" fill="#22414C" opacity="0.35"/><path d="M0,800 L0,539.7 L0.0,539.7 L85.7,610.4 L171.4,476.4 L257.1,629.5 L342.9,570.3 L428.6,412.2 L514.3,566.0 L600.0,603.2 L685.7,507.5 L771.4,624.8 L857.1,478.7 L942.9,484.7 L1028.6,549.2 L1114.3,590.9 L1200.0,604.8 L1200,800 Z" fill="#22414C" opacity="0.60"/><path d="M387,472 Q412,418 429,412 Q445,418 471,472 Q429,442 387,472 Z" fill="#F7FAFC" opacity="0.9"/><path d="M0,800 L0,630.9 L0.0,630.9 L85.7,614.3 L171.4,622.5 L257.1,596.9 L342.9,664.2 L428.6,690.9 L514.3,627.5 L600.0,666.4 L685.7,707.5 L771.4,607.5 L857.1,584.3 L942.9,720.0 L1028.6,604.9 L1114.3,675.4 L1200.0,684.7 L1200,800 Z" fill="#22414C" opacity="1.00"/><rect x="0" y="688" width="1200" height="112" fill="#4A7C8C8c"/><rect x="0" y="688" width="1200" height="2" fill="#ffffff" opacity="0.25"/><rect width="1200" height="800" fill="#0C1A15" opacity="0.05"/></svg>