<svg xmlns="http://www.w3.org/2000/svg" viewBox="0 0 1200 800" preserveAspectRatio="xMidYMid slice"><defs><linearGradient id="sky107" x1="0" y1="0" x2="0" y2="1"><stop offset="0%" stop-color="#F3E6C8"/><stop offset="55%" stop-color="#CDE0A8"/><stop offset="100%" stop-color="#6E9A5A"/></linearGradient><radialGradient id="sun107" cx="50%" cy="50%" r="50%"><stop offset="0%" stop-color="#FFF4D6f2"/><stop offset="100%" stop-color="#FFF4D600"/></radialGradient></defs><rect width="1200" height="800" fill="url(#sky107)"/><circle cx="888" cy="224" r="230" fill="url(#sun107)"/><circle cx="888" cy="224" r="46" fill="#FFF4D6e5"/><path d="M0,800 L0,385.7 L0.0,385.7 L85.7,449.1 L171.4,510.1 L257.1,459.2 L342.9,417.9 L428.6,374.8 L514.3,338.8 L600.0,459.8 L685.7,438.2 L771.4,386.7 L857.1,451.2 L942.9,473.2 L1028.6,493.8 L1114.3,389.1 L1200.0,375.0 L1200,800 Z" fill="#3C5A2E" opacity="0.35"/><path d="M0,800 L0,604.6 L0.0,604.6 L85.7,475.1 L171.4,557.8 L257.1,489.8 L342.9,559.5 L428.6,511.5 L514.3,522.8 L600.0,415.7 L685.7,493.3 L771.4,512.8 L857.1,481.2 L942.9,599.6 L1028.6,579.7 L1114.3,429.8 L1200.0,542.4 L1200,800 Z" fill="#3C5A2E" opacity="0.60"/><path d="M558,476 Q583,422 600,416 Q617,422 642,476 Q600,446 558,476 Z" fill="#F7FAFC" opacity="0.9"/><path d="M1072,490 Q1097,436 1114,430 Q1131,436 1156,490 Q1114,460 1072,490 Z" fill="#F7FAFC" opacity="0.9"/><path d="M0,800 L0,561.8 L0.0,561.8 L85.7,730.7 L171.4,676.8 L257.1,530.9 L342.9,648.6 L428.6,630.2 L514.3,698.6 L600.0,664.8 L685.7,612.6 L771.4,687.3 L857.1,633.0 L942.9,573.8 L1028.6,637.3 L1114.3,653.9 L1200.0,625.0 L1200,800 Z" fill="#3C5A2E" opacity="1.00"/><rect width="1200" height="800" fill="#0C1A15" opacity="0.05"/></svg>