<svg xmlns="http://www.w3.org/2000/svg" viewBox="0 0 1200 800" preserveAspectRatio="xMidYMid slice"><defs><linearGradient id="sky109" x1="0" y1="0" x2="0" y2="1"><stop offset="0%" stop-color="#EAF2F8"/><stop offset="55%" stop-color="#CBDDEA"/><stop offset="100%" stop-color="#8FB0C6"/></linearGradient><radialGradient id="sun109" cx="50%" cy="50%" r="50%"><stop offset="0%" stop-color="#FFFFFFf2"/><stop offset="100%" stop-color="#FFFFFF00"/></radialGradient></defs><rect width="1200" height="800" fill="url(#sky109)"/><circle cx="840" cy="176" r="230" fill="url(#sun109)"/><circle cx="840" cy="176" r="46" fill="#FFFFFFe5"/><path d="M0,800 L0,408.0 L0.0,408.0 L85.7,417.4 L171.4,410.6 L257.1,334.7 L342.9,389.4 L428.6,464.1 L514.3,427.6 L600.0,438.8 L685.7,484.5 L771.4,431.7 L857.1,391.2 L942.9,451.0 L1028.6,343.7 L1114.3,443.7 L1200.0,454.3 L1200,800 Z" fill="#4A6076" opacity="0.35"/><path d="M0,800 L0,492.6 L0.0,492.6 L85.7,558.0 L171.4,581.7 L257.1,592.9 L342.9,594.6 L428.6,539.0 L514.3,441.9 L600.0,489.1 L685.7,555.5 L771.4,529.2 L857.1,594.8 L942.9,533.2 L1028.6,506.2 L1114.3,522.7 L1200.0,514.4 L1200,800 Z" fill="#4A6076" opacity="0.60"/><path d="M0,800 L0,733.6 L0.0,733.6 L85.7,580.2 L171.4,548.5 L257.1,591.0 L342.9,709.5 L428.6,682.6 L514.3,690.7 L600.0,684.9 L685.7,689.4 L771.4,652.0 L857.1,611.3 L942.9,667.0 L1028.6,607.8 L1114.3,545.8 L1200.0,675.3 L1200,800 Z" fill="#4A6076" opacity="1.00"/><rect width="1200" height="800" fill="#0C1A15" opacity="0.05"/></svg>