<svg xmlns="http://www.w3.org/2000/svg" viewBox="0 0 1200 800" preserveAspectRatio="xMidYMid slice"><defs><linearGradient id="sky113" x1="0" y1="0" x2="0" y2="1"><stop offset="0%" stop-color="#F6C88B"/><stop offset="55%" stop-color="#E88B6A"/><stop offset="100%" stop-color="#4A3A5A"/></linearGradient><radialGradient id="sun113" cx="50%" cy="50%" r="50%"><stop offset="0%" stop-color="#FFE9C2f2"/><stop offset="100%" stop-color="#FFE9C200"/></radialGradient></defs><rect width="1200" height="800" fill="url(#sky113)"/><circle cx="864" cy="240" r="230" fill="url(#sun113)"/><circle cx="864" cy="240" r="46" fill="#FFE9C2e5"/><path d="M0,800 L0,347.6 L0.0,347.6 L85.7,483.3 L171.4,474.1 L257.1,373.9 L342.9,434.9 L428.6,372.2 L514.3,446.5 L600.0,437.6 L685.7,368.5 L771.4,427.5 L857.1,431.5 L942.9,412.5 L1028.6,431.9 L1114.3,412.7 L1200.0,403.8 L1200,800 Z" fill="#2A2438" opacity="0.35"/><path d="M0,800 L0,594.4 L0.0,594.4 L85.7,518.7 L171.4,534.7 L257.1,436.7 L342.9,585.0 L428.6,601.5 L514.3,521.7 L600.0,491.8 L685.7,454.9 L771.4,519.8 L857.1,578.1 L942.9,617.1 L1028.6,527.3 L1114.3,483.5 L1200.0,476.0 L1200,800 Z" fill="#2A2438" opacity="0.60"/><path d="M215,497 Q240,443 257,437 Q274,443 299,497 Q257,467 215,497 Z" fill="#F7FAFC" opacity="0.9"/><path d="M0,800 L0,696.3 L0.0,696.3 L85.7,618.8 L171.4,695.6 L257.1,615.5 L342.9,708.2 L428.6,679.6 L514.3,635.8 L600.0,541.2 L685.7,623.8 L771.4,746.0 L857.1,721.3 L942.9,568.6 L1028.6,688.8 L1114.3,625.7 L1200.0,652.4 L1200,800 Z" fill="#2A2438" opacity="1.00"/><rect width="1200" height="800" fill="#0C1A15" opacity="0.05"/></svg>