<svg xmlns="http://www.w3.org/2000/svg" viewBox="0 0 1200 800" preserveAspectRatio="xMidYMid slice"><defs><linearGradient id="sky127" x1="0" y1="0" x2="0" y2="1"><stop offset="0%" stop-color="#3A4A78"/><stop offset="55%" stop-color="#5B4A78"/><stop offset="100%" stop-color="#241A34"/></linearGradient><radialGradient id="sun127" cx="50%" cy="50%" r="50%"><stop offset="0%" stop-color="#DCC8FFf2"/><stop offset="100%" stop-color="#DCC8FF00"/></radialGradient></defs><rect width="1200" height="800" fill="url(#sky127)"/><circle cx="766" cy="320" r="0.8" fill="#fff" opacity="0.35"/><circle cx="793" cy="218" r="0.8" fill="#fff" opacity="0.36"/><circle cx="889" cy="40" r="1.5" fill="#fff" opacity="0.87"/><circle cx="831" cy="222" r="0.6" fill="#fff" opacity="0.78"/><circle cx="82" cy="359" r="1.4" fill="#fff" opacity="0.74"/><circle cx="803" cy="312" r="0.9" fill="#fff" opacity="0.89"/><circle cx="605" cy="57" r="1.1" fill="#fff" opacity="0.88"/><circle cx="1011" cy="136" r="1.0" fill="#fff" opacity="0.85"/><circle cx="960" cy="61" r="0.9" fill="#fff" opacity="0.79"/><circle cx="1089" cy="203" r="1.0" fill="#fff" opacity="0.41"/><circle cx="840" cy="359" r="1.6" fill="#fff" opacity="0.72"/><circle cx="700" cy="318" r="1.3" fill="#fff" opacity="0.79"/><circle cx="463" cy="32" r="1.5" fill="#fff" opacity="0.46"/><circle cx="860" cy="221" r="0.5" fill="#fff" opacity="0.42"/><circle cx="811" cy="221" r="1.5" fill="#fff" opacity="0.65"/><circle cx="726" cy="3" r="0.9" fill="#fff" opacity="0.72"/><circle cx="946" cy="153" r="1.0" fill="#fff" opacity="0.62"/><circle cx="123" cy="28" r="0.6" fill="#fff" opacity="0.76"/><circle cx="857" cy="179" r="0.8" fill="#fff" opacity="0.52"/><circle cx="1012" cy="110" r="1.5" fill="#fff" opacity="0.72"/><circle cx="312" cy="141" r="1.2" fill="#fff" opacity="0.84"/><circle cx="815" cy="89" r="0.8" fill="#fff" opacity="0.57"/><circle cx="853" cy="43" r="1.5" fill="#fff" opacity="0.42"/><circle cx="614" cy="380" r="1.5" fill="#fff" opacity="0.59"/><circle cx="215" cy="171" r="0.9" fill="#fff" opacity="0.80"/><circle cx="254" cy="76" r="0.6" fill="#fff" opacity="0.79"/><circle cx="1045" cy="21" r="0.7" fill="#fff" opacity="0.69"/><circle cx="772" cy="88" r="1.6" fill="#fff" opacity="0.55"/><circle cx="626" cy="168" r="1.4" fill="#fff" opacity="0.56"/><circle cx="779" cy="269" r="0.9" fill="#fff" opacity="0.74"/><circle cx="939" cy="53" r="1.2" fill="#fff" opacity="0.50"/><circle cx="426" cy="308" r="1.2" fill="#fff" opacity="0.56"/><circle cx="522" cy="357" r="1.4" fill="#fff" opacity="0.32"/><circle cx="1129" cy="249" r="1.6" fill="#fff" opacity="0.87"/><circle cx="111" cy="32" r="1.3" fill="#fff" opacity="0.80"/><circle cx="679" cy="324" r="1.3" fill="#fff" opacity="0.55"/><circle cx="932" cy="139" r="0.7" fill="#fff" opacity="0.55"/><circle cx="89" cy="40" r="0.9" fill="#fff" opacity="0.36"/><circle cx="1083" cy="140" r="1.0" fill="#fff" opacity="0.64"/><circle cx="214" cy="276" r="1.4" fill="#fff" opacity="0.36"/><circle cx="671" cy="193" r="1.4" fill="#fff" opacity="0.63"/><circle cx="858" cy="39" r="0.6" fill="#fff" opacity="0.57"/><circle cx="511" cy="87" r="1.2" fill="#fff" opacity="0.78"/><circle cx="1179" cy="214" r="1.4" fill="#fff" opacity="0.31"/><circle cx="383" cy="368" r="1.4" fill="#fff" opacity="0.61"/><circle cx="866" cy="316" r="0.6" fill="#fff" opacity="0.56"/><circle cx="613" cy="172" r="0.8" fill="#fff" opacity="0.89"/><circle cx="742" cy="191" r="1.4" fill="#fff" opacity="0.35"/><circle cx="220" cy="312" r="0.6" fill="#fff" opacity="0.50"/><circle cx="851" cy="100" r="0.7" fill="#fff" opacity="0.48"/><circle cx="498" cy="244" r="1.2" fill="#fff" opacity="0.76"/><circle cx="922" cy="120" r="1.4" fill="#fff" opacity="0.44"/><circle cx="113" cy="87" r="1.0" fill="#fff" opacity="0.50"/><circle cx="282" cy="99" r="0.8" fill="#fff" opacity="0.57"/><circle cx="272" cy="37" r="0.6" fill="#fff" opacity="0.46"/><circle cx="302" cy="136" r="1.0" fill="#fff" opacity="0.31"/><circle cx="712" cy="154" r="0.7" fill="#fff" opacity="0.35"/><circle cx="685" cy="206" r="0.7" fill="#fff" opacity="0.83"/><circle cx="325" cy="78" r="0.5" fill="#fff" opacity="0.38"/><circle cx="480" cy="2" r="1.2" fill="#fff" opacity="0.64"/><circle cx="264" cy="224" r="230" fill="url(#sun127)"/><circle cx="264" cy="224" r="46" fill="#DCC8FFe5"/><path d="M0,800 L0,379.5 L0.0,379.5 L85.7,458.4 L171.4,436.0 L257.1,351.6 L342.9,326.7 L428.6,449.8 L514.3,384.1 L600.0,386.6 L685.7,456.5 L771.4,504.1 L857.1,414.2 L942.9,489.8 L1028.6,381.2 L1114.3,456.8 L1200.0,417.1 L1200,800 Z" fill="#171426" opacity="0.35"/><path d="M0,800 L0,498.1 L0.0,498.1 L85.7,460.2 L171.4,580.4 L257.1,616.7 L342.9,577.4 L428.6,427.5 L514.3,445.3 L600.0,480.7 L685.7,633.2 L771.4,592.3 L857.1,546.3 L942.9,534.7 L1028.6,422.2 L1114.3,553.4 L1200.0,583.5 L1200,800 Z" fill="#171426" opacity="0.60"/><path d="M387,488 Q412,434 429,428 Q445,434 471,488 Q429,458 387,488 Z" fill="#F7FAFC" opacity="0.9"/><path d="M987,482 Q1012,428 1029,422 Q1045,428 1071,482 Q1029,452 987,482 Z" fill="#F7FAFC" opacity="0.9"/><path d="M0,800 L0,666.8 L0.0,666.8 L85.7,652.2 L171.4,654.3 L257.1,676.0 L342.9,643.7 L428.6,658.8 L514.3,629.2 L600.0,663.6 L685.7,742.8 L771.4,687.1 L857.1,668.6 L942.9,659.9 L1028.6,633.8 L1114.3,610.1 L1200.0,529.3 L1200,800 Z" fill="#171426" opacity="1.00"/><rect x="0" y="688" width="1200" height="112" fill="#241A348c"/><rect x="0" y="688" width="1200" height="2" fill="#ffffff" opacity="0.25"/><rect width="1200" height="800" fill="#0C1A15" opacity="0.05"/></svg>