<svg xmlns="http://www.w3.org/2000/svg" viewBox="0 0 1200 800" preserveAspectRatio="xMidYMid slice"><defs><linearGradient id="sky131" x1="0" y1="0" x2="0" y2="1"><stop offset="0%" stop-color="#E7EFE4"/><stop offset="55%" stop-color="#A9C6AE"/><stop offset="100%" stop-color="#3E6B57"/></linearGradient><radialGradient id="sun131" cx="50%" cy="50%" r="50%"><stop offset="0%" stop-color="#F3FBEFf2"/><stop offset="100%" stop-color="#F3FBEF00"/></radialGradient></defs><rect width="1200" height="800" fill="url(#sky131)"/><circle cx="360" cy="208" r="230" fill="url(#sun131)"/><circle cx="360" cy="208" r="46" fill="#F3FBEFe5"/><path d="M0,800 L0,367.4 L0.0,367.4 L85.7,446.9 L171.4,370.5 L257.1,411.7 L342.9,427.6 L428.6,486.9 L514.3,391.6 L600.0,408.8 L685.7,332.1 L771.4,347.6 L857.1,437.5 L942.9,436.1 L1028.6,472.6 L1114.3,434.6 L1200.0,429.6 L1200,800 Z" fill="#173E32" opacity="0.35"/><path d="M0,800 L0,557.0 L0.0,557.0 L85.7,473.4 L171.4,582.8 L257.1,573.1 L342.9,578.4 L428.6,622.8 L514.3,467.9 L600.0,563.7 L685.7,422.2 L771.4,487.1 L857.1,543.1 L942.9,518.8 L1028.6,552.1 L1114.3,498.4 L1200.0,408.0 L1200,800 Z" fill="#173E32" opacity="0.60"/><path d="M644,482 Q669,428 686,422 Q703,428 728,482 Q686,452 644,482 Z" fill="#F7FAFC" opacity="0.9"/><path d="M1158,468 Q1183,414 1200,408 Q1217,414 1242,468 Q1200,438 1158,468 Z" fill="#F7FAFC" opacity="0.9"/><path d="M0,800 L0,541.4 L0.0,541.4 L85.7,637.2 L171.4,747.9 L257.1,583.7 L342.9,587.1 L428.6,706.3 L514.3,731.8 L600.0,625.8 L685.7,687.0 L771.4,712.5 L857.1,669.9 L942.9,562.1 L1028.6,603.7 L1114.3,664.0 L1200.0,583.8 L1200,800 Z" fill="#173E32" opacity="1.00"/><rect width="1200" height="800" fill="#0C1A15" opacity="0.05"/></svg>