<svg xmlns="http://www.w3.org/2000/svg" viewBox="0 0 1200 800" preserveAspectRatio="xMidYMid slice"><defs><linearGradient id="sky47" x1="0" y1="0" x2="0" y2="1"><stop offset="0%" stop-color="#E7EFE4"/><stop offset="55%" stop-color="#A9C6AE"/><stop offset="100%" stop-color="#3E6B57"/></linearGradient><radialGradient id="sun47" cx="50%" cy="50%" r="50%"><stop offset="0%" stop-color="#F3FBEFf2"/><stop offset="100%" stop-color="#F3FBEF00"/></radialGradient></defs><rect width="1200" height="800" fill="url(#sky47)"/><circle cx="360" cy="208" r="230" fill="url(#sun47)"/><circle cx="360" cy="208" r="46" fill="#F3FBEFe5"/><path d="M0,800 L0,398.7 L0.0,398.7 L85.7,391.0 L171.4,382.7 L257.1,368.4 L342.9,405.2 L428.6,407.4 L514.3,374.2 L600.0,432.5 L685.7,369.5 L771.4,363.3 L857.1,367.3 L942.9,454.3 L1028.6,387.9 L1114.3,410.4 L1200.0,481.4 L1200,800 Z" fill="#173E32" opacity="0.35"/><path d="M0,800 L0,518.1 L0.0,518.1 L85.7,512.6 L171.4,586.4 L257.1,485.5 L342.9,493.0 L428.6,581.5 L514.3,455.2 L600.0,528.0 L685.7,587.7 L771.4,445.8 L857.1,430.8 L942.9,562.5 L1028.6,627.3 L1114.3,531.3 L1200.0,491.5 L1200,800 Z" fill="#173E32" opacity="0.60"/><path d="M815,491 Q840,437 857,431 Q874,437 899,491 Q857,461 815,491 Z" fill="#F7FAFC" opacity="0.9"/><path d="M0,800 L0,671.4 L0.0,671.4 L85.7,672.7 L171.4,622.1 L257.1,704.2 L342.9,719.1 L428.6,612.4 L514.3,670.1 L600.0,707.8 L685.7,702.8 L771.4,534.2 L857.1,583.4 L942.9,751.4 L1028.6,681.3 L1114.3,569.8 L1200.0,678.8 L1200,800 Z" fill="#173E32" opacity="1.00"/><rect width="1200" height="800" fill="#0C1A15" opacity="0.05"/></svg>