<svg xmlns="http://www.w3.org/2000/svg" viewBox="0 0 1200 800" preserveAspectRatio="xMidYMid slice"><defs><linearGradient id="sky41" x1="0" y1="0" x2="0" y2="1"><stop offset="0%" stop-color="#EAF2F8"/><stop offset="55%" stop-color="#CBDDEA"/><stop offset="100%" stop-color="#8FB0C6"/></linearGradient><radialGradient id="sun41" cx="50%" cy="50%" r="50%"><stop offset="0%" stop-color="#FFFFFFf2"/><stop offset="100%" stop-color="#FFFFFF00"/></radialGradient></defs><rect width="1200" height="800" fill="url(#sky41)"/><circle cx="840" cy="176" r="230" fill="url(#sun41)"/><circle cx="840" cy="176" r="46" fill="#FFFFFFe5"/><path d="M0,800 L0,394.9 L0.0,394.9 L85.7,357.1 L171.4,341.2 L257.1,452.3 L342.9,421.8 L428.6,456.5 L514.3,449.7 L600.0,426.0 L685.7,462.4 L771.4,421.8 L857.1,433.9 L942.9,410.6 L1028.6,442.2 L1114.3,402.9 L1200.0,382.0 L1200,800 Z" fill="#4A6076" opacity="0.35"/><path d="M0,800 L0,512.2 L0.0,512.2 L85.7,567.9 L171.4,621.9 L257.1,463.5 L342.9,444.1 L428.6,418.3 L514.3,470.8 L600.0,475.3 L685.7,486.7 L771.4,513.4 L857.1,580.1 L942.9,547.2 L1028.6,527.9 L1114.3,546.3 L1200.0,572.7 L1200,800 Z" fill="#4A6076" opacity="0.60"/><path d="M387,478 Q412,424 429,418 Q445,424 471,478 Q429,448 387,478 Z" fill="#F7FAFC" opacity="0.9"/><path d="M0,800 L0,620.2 L0.0,620.2 L85.7,597.0 L171.4,630.5 L257.1,646.9 L342.9,642.2 L428.6,590.8 L514.3,568.2 L600.0,658.9 L685.7,560.3 L771.4,544.7 L857.1,607.6 L942.9,745.9 L1028.6,629.9 L1114.3,616.5 L1200.0,715.8 L1200,800 Z" fill="#4A6076" opacity="1.00"/><rect width="1200" height="800" fill="#0C1A15" opacity="0.05"/></svg>