<svg xmlns="http://www.w3.org/2000/svg" viewBox="0 0 1200 800" preserveAspectRatio="xMidYMid slice"><defs><linearGradient id="sky43" x1="0" y1="0" x2="0" y2="1"><stop offset="0%" stop-color="#DDEBF2"/><stop offset="55%" stop-color="#9FC4D6"/><stop offset="100%" stop-color="#4A7C8C"/></linearGradient><radialGradient id="sun43" cx="50%" cy="50%" r="50%"><stop offset="0%" stop-color="#F4FBFFf2"/><stop offset="100%" stop-color="#F4FBFF00"/></radialGradient></defs><rect width="1200" height="800" fill="url(#sky43)"/><circle cx="336" cy="192" r="230" fill="url(#sun43)"/><circle cx="336" cy="192" r="46" fill="#F4FBFFe5"/><path d="M0,800 L0,328.1 L0.0,328.1 L85.7,435.7 L171.4,377.5 L257.1,435.9 L342.9,467.2 L428.6,473.4 L514.3,407.3 L600.0,396.1 L685.7,320.8 L771.4,383.5 L857.1,390.8 L942.9,477.1 L1028.6,448.0 L1114.3,478.8 L1200.0,422.7 L1200,800 Z" fill="#22414C" opacity="0.35"/><path d="M0,800 L0,630.4 L0.0,630.4 L85.7,510.9 L171.4,512.3 L257.1,563.2 L342.9,484.0 L428.6,564.8 L514.3,569.1 L600.0,598.1 L685.7,408.4 L771.4,428.7 L857.1,511.3 L942.9,622.5 L1028.6,606.7 L1114.3,441.8 L1200.0,567.9 L1200,800 Z" fill="#22414C" opacity="0.60"/><path d="M644,468 Q669,414 686,408 Q703,414 728,468 Q686,438 644,468 Z" fill="#F7FAFC" opacity="0.9"/><path d="M729,489 Q755,435 771,429 Q788,435 813,489 Q771,459 729,489 Z" fill="#F7FAFC" opacity="0.9"/><path d="M0,800 L0,540.2 L0.0,540.2 L85.7,636.6 L171.4,607.6 L257.1,668.1 L342.9,612.6 L428.6,581.9 L514.3,595.5 L600.0,662.1 L685.7,557.2 L771.4,694.6 L857.1,687.3 L942.9,621.9 L1028.6,671.6 L1114.3,676.7 L1200.0,675.9 L1200,800 Z" fill="#22414C" opacity="1.00"/><rect x="0" y="688" width="1200" height="112" fill="#4A7C8C8c"/><rect x="0" y="688" width="1200" height="2" fill="#ffffff" opacity="0.25"/><rect width="1200" height="800" fill="#0C1A15" opacity="0.05"/></svg>