<svg xmlns="http://www.w3.org/2000/svg" viewBox="0 0 1200 800" preserveAspectRatio="xMidYMid slice"><defs><linearGradient id="sky53" x1="0" y1="0" x2="0" y2="1"><stop offset="0%" stop-color="#EAF2F8"/><stop offset="55%" stop-color="#CBDDEA"/><stop offset="100%" stop-color="#8FB0C6"/></linearGradient><radialGradient id="sun53" cx="50%" cy="50%" r="50%"><stop offset="0%" stop-color="#FFFFFFf2"/><stop offset="100%" stop-color="#FFFFFF00"/></radialGradient></defs><rect width="1200" height="800" fill="url(#sky53)"/><circle cx="840" cy="176" r="230" fill="url(#sun53)"/><circle cx="840" cy="176" r="46" fill="#FFFFFFe5"/><path d="M0,800 L0,443.5 L0.0,443.5 L85.7,462.5 L171.4,386.5 L257.1,417.8 L342.9,458.1 L428.6,417.5 L514.3,465.7 L600.0,475.3 L685.7,491.0 L771.4,361.8 L857.1,361.2 L942.9,461.9 L1028.6,422.8 L1114.3,363.8 L1200.0,449.1 L1200,800 Z" fill="#4A6076" opacity="0.35"/><path d="M0,800 L0,593.1 L0.0,593.1 L85.7,557.6 L171.4,559.1 L257.1,545.9 L342.9,552.7 L428.6,581.0 L514.3,505.4 L600.0,507.0 L685.7,538.6 L771.4,452.8 L857.1,523.0 L942.9,586.1 L1028.6,478.4 L1114.3,608.0 L1200.0,503.2 L1200,800 Z" fill="#4A6076" opacity="0.60"/><path d="M0,800 L0,616.2 L0.0,616.2 L85.7,684.0 L171.4,692.4 L257.1,590.0 L342.9,712.9 L428.6,646.9 L514.3,653.0 L600.0,590.0 L685.7,706.6 L771.4,591.4 L857.1,676.6 L942.9,675.6 L1028.6,692.5 L1114.3,646.1 L1200.0,605.3 L1200,800 Z" fill="#4A6076" opacity="1.00"/><rect width="1200" height="800" fill="#0C1A15" opacity="0.05"/></svg>