<svg xmlns="http://www.w3.org/2000/svg" viewBox="0 0 1200 800" preserveAspectRatio="xMidYMid slice"><defs><linearGradient id="sky5298" x1="0" y1="0" x2="0" y2="1"><stop offset="0%" stop-color="#F6C88B"/><stop offset="55%" stop-color="#E88B6A"/><stop offset="100%" stop-color="#4A3A5A"/></linearGradient><radialGradient id="sun5298" cx="50%" cy="50%" r="50%"><stop offset="0%" stop-color="#FFE9C2f2"/><stop offset="100%" stop-color="#FFE9C200"/></radialGradient></defs><rect width="1200" height="800" fill="url(#sky5298)"/><circle cx="864" cy="240" r="230" fill="url(#sun5298)"/><circle cx="864" cy="240" r="46" fill="#FFE9C2e5"/><path d="M0,800 L0,475.1 L0.0,475.1 L85.7,496.5 L171.4,439.7 L257.1,400.2 L342.9,411.8 L428.6,400.2 L514.3,354.4 L600.0,414.6 L685.7,389.4 L771.4,417.7 L857.1,430.5 L942.9,433.7 L1028.6,458.9 L1114.3,443.2 L1200.0,340.0 L1200,800 Z" fill="#2A2438" opacity="0.35"/><path d="M0,800 L0,491.7 L0.0,491.7 L85.7,424.7 L171.4,521.9 L257.1,548.1 L342.9,576.8 L428.6,602.0 L514.3,517.1 L600.0,554.1 L685.7,622.1 L771.4,616.7 L857.1,477.5 L942.9,568.6 L1028.6,514.6 L1114.3,454.9 L1200.0,496.4 L1200,800 Z" fill="#2A2438" opacity="0.60"/><path d="M44,485 Q69,431 86,425 Q103,431 128,485 Q86,455 44,485 Z" fill="#F7FAFC" opacity="0.9"/><path d="M0,800 L0,690.4 L0.0,690.4 L85.7,642.8 L171.4,638.1 L257.1,606.5 L342.9,662.0 L428.6,687.8 L514.3,562.9 L600.0,594.8 L685.7,612.3 L771.4,635.0 L857.1,664.8 L942.9,693.5 L1028.6,738.9 L1114.3,706.7 L1200.0,560.0 L1200,800 Z" fill="#2A2438" opacity="1.00"/><rect width="1200" height="800" fill="#0C1A15" opacity="0.05"/></svg>