<svg xmlns="http://www.w3.org/2000/svg" viewBox="0 0 1200 800" preserveAspectRatio="xMidYMid slice"><defs><linearGradient id="sky6532" x1="0" y1="0" x2="0" y2="1"><stop offset="0%" stop-color="#F6C88B"/><stop offset="55%" stop-color="#E88B6A"/><stop offset="100%" stop-color="#4A3A5A"/></linearGradient><radialGradient id="sun6532" cx="50%" cy="50%" r="50%"><stop offset="0%" stop-color="#FFE9C2f2"/><stop offset="100%" stop-color="#FFE9C200"/></radialGradient></defs><rect width="1200" height="800" fill="url(#sky6532)"/><circle cx="864" cy="240" r="230" fill="url(#sun6532)"/><circle cx="864" cy="240" r="46" fill="#FFE9C2e5"/><path d="M0,800 L0,415.2 L0.0,415.2 L85.7,418.6 L171.4,332.0 L257.1,464.8 L342.9,410.1 L428.6,393.6 L514.3,507.6 L600.0,385.0 L685.7,434.6 L771.4,387.8 L857.1,425.4 L942.9,354.4 L1028.6,363.4 L1114.3,370.3 L1200.0,411.6 L1200,800 Z" fill="#2A2438" opacity="0.35"/><path d="M0,800 L0,634.1 L0.0,634.1 L85.7,602.7 L171.4,610.0 L257.1,585.9 L342.9,458.0 L428.6,498.8 L514.3,639.1 L600.0,513.9 L685.7,503.1 L771.4,566.3 L857.1,567.3 L942.9,473.5 L1028.6,557.1 L1114.3,549.2 L1200.0,553.9 L1200,800 Z" fill="#2A2438" opacity="0.60"/><path d="M0,800 L0,604.3 L0.0,604.3 L85.7,605.0 L171.4,719.1 L257.1,625.1 L342.9,646.2 L428.6,685.5 L514.3,609.6 L600.0,627.0 L685.7,660.5 L771.4,583.4 L857.1,611.0 L942.9,669.5 L1028.6,586.6 L1114.3,655.2 L1200.0,654.9 L1200,800 Z" fill="#2A2438" opacity="1.00"/><rect width="1200" height="800" fill="#0C1A15" opacity="0.05"/></svg>