<svg xmlns="http://www.w3.org/2000/svg" viewBox="0 0 1200 800" preserveAspectRatio="xMidYMid slice"><defs><linearGradient id="sky7723" x1="0" y1="0" x2="0" y2="1"><stop offset="0%" stop-color="#F6C88B"/><stop offset="55%" stop-color="#E88B6A"/><stop offset="100%" stop-color="#4A3A5A"/></linearGradient><radialGradient id="sun7723" cx="50%" cy="50%" r="50%"><stop offset="0%" stop-color="#FFE9C2f2"/><stop offset="100%" stop-color="#FFE9C200"/></radialGradient></defs><rect width="1200" height="800" fill="url(#sky7723)"/><circle cx="864" cy="240" r="230" fill="url(#sun7723)"/><circle cx="864" cy="240" r="46" fill="#FFE9C2e5"/><path d="M0,800 L0,494.4 L0.0,494.4 L85.7,425.6 L171.4,493.7 L257.1,449.3 L342.9,347.1 L428.6,358.9 L514.3,330.1 L600.0,345.9 L685.7,420.2 L771.4,466.3 L857.1,492.1 L942.9,472.1 L1028.6,385.9 L1114.3,374.4 L1200.0,377.0 L1200,800 Z" fill="#2A2438" opacity="0.35"/><path d="M0,800 L0,442.6 L0.0,442.6 L85.7,475.0 L171.4,526.0 L257.1,581.8 L342.9,579.6 L428.6,461.7 L514.3,426.2 L600.0,527.3 L685.7,524.9 L771.4,651.0 L857.1,490.5 L942.9,590.5 L1028.6,578.9 L1114.3,460.8 L1200.0,567.7 L1200,800 Z" fill="#2A2438" opacity="0.60"/><path d="M472,486 Q497,432 514,426 Q531,432 556,486 Q514,456 472,486 Z" fill="#F7FAFC" opacity="0.9"/><path d="M0,800 L0,616.0 L0.0,616.0 L85.7,703.0 L171.4,600.9 L257.1,660.0 L342.9,660.7 L428.6,641.0 L514.3,663.6 L600.0,585.4 L685.7,607.1 L771.4,677.2 L857.1,592.6 L942.9,638.2 L1028.6,676.4 L1114.3,608.7 L1200.0,597.0 L1200,800 Z" fill="#2A2438" opacity="1.00"/><rect width="1200" height="800" fill="#0C1A15" opacity="0.05"/></svg>