<svg xmlns="http://www.w3.org/2000/svg" viewBox="0 0 1200 800" preserveAspectRatio="xMidYMid slice"><defs><linearGradient id="sky6782" x1="0" y1="0" x2="0" y2="1"><stop offset="0%" stop-color="#F6C88B"/><stop offset="55%" stop-color="#E88B6A"/><stop offset="100%" stop-color="#4A3A5A"/></linearGradient><radialGradient id="sun6782" cx="50%" cy="50%" r="50%"><stop offset="0%" stop-color="#FFE9C2f2"/><stop offset="100%" stop-color="#FFE9C200"/></radialGradient></defs><rect width="1200" height="800" fill="url(#sky6782)"/><circle cx="864" cy="240" r="230" fill="url(#sun6782)"/><circle cx="864" cy="240" r="46" fill="#FFE9C2e5"/><path d="M0,800 L0,476.0 L0.0,476.0 L85.7,392.0 L171.4,402.8 L257.1,354.7 L342.9,379.9 L428.6,432.4 L514.3,381.0 L600.0,404.2 L685.7,402.9 L771.4,419.9 L857.1,458.3 L942.9,447.9 L1028.6,327.9 L1114.3,335.9 L1200.0,427.0 L1200,800 Z" fill="#2A2438" opacity="0.35"/><path d="M0,800 L0,505.1 L0.0,505.1 L85.7,522.8 L171.4,608.0 L257.1,607.5 L342.9,491.7 L428.6,411.6 L514.3,495.8 L600.0,488.4 L685.7,538.3 L771.4,471.4 L857.1,448.5 L942.9,413.4 L1028.6,541.1 L1114.3,504.7 L1200.0,572.0 L1200,800 Z" fill="#2A2438" opacity="0.60"/><path d="M387,472 Q412,418 429,412 Q445,418 471,472 Q429,442 387,472 Z" fill="#F7FAFC" opacity="0.9"/><path d="M901,473 Q926,419 943,413 Q960,419 985,473 Q943,443 901,473 Z" fill="#F7FAFC" opacity="0.9"/><path d="M0,800 L0,694.1 L0.0,694.1 L85.7,670.4 L171.4,685.3 L257.1,737.5 L342.9,704.6 L428.6,574.9 L514.3,695.4 L600.0,584.9 L685.7,674.2 L771.4,579.9 L857.1,553.2 L942.9,733.9 L1028.6,698.1 L1114.3,614.1 L1200.0,588.5 L1200,800 Z" fill="#2A2438" opacity="1.00"/><rect width="1200" height="800" fill="#0C1A15" opacity="0.05"/></svg>