<svg xmlns="http://www.w3.org/2000/svg" viewBox="0 0 1200 800" preserveAspectRatio="xMidYMid slice"><defs><linearGradient id="sky2737" x1="0" y1="0" x2="0" y2="1"><stop offset="0%" stop-color="#BFD4E6"/><stop offset="55%" stop-color="#8FA9C4"/><stop offset="100%" stop-color="#C9A06A"/></linearGradient><radialGradient id="sun2737" cx="50%" cy="50%" r="50%"><stop offset="0%" stop-color="#FFF3DDf2"/><stop offset="100%" stop-color="#FFF3DD00"/></radialGradient></defs><rect width="1200" height="800" fill="url(#sky2737)"/><circle cx="816" cy="208" r="230" fill="url(#sun2737)"/><circle cx="816" cy="208" r="46" fill="#FFF3DDe5"/><path d="M0,800 L0,376.9 L0.0,376.9 L85.7,403.8 L171.4,333.6 L257.1,401.9 L342.9,423.3 L428.6,506.5 L514.3,399.4 L600.0,501.2 L685.7,417.3 L771.4,458.0 L857.1,418.0 L942.9,344.5 L1028.6,347.7 L1114.3,412.9 L1200.0,386.9 L1200,800 Z" fill="#7A5A3C" opacity="0.35"/><path d="M0,800 L0,571.0 L0.0,571.0 L85.7,557.3 L171.4,573.6 L257.1,440.6 L342.9,425.0 L428.6,431.4 L514.3,532.3 L600.0,587.7 L685.7,598.2 L771.4,526.8 L857.1,548.4 L942.9,521.7 L1028.6,481.1 L1114.3,569.4 L1200.0,605.0 L1200,800 Z" fill="#7A5A3C" opacity="0.60"/><path d="M0,800 L0,579.5 L0.0,579.5 L85.7,540.1 L171.4,582.4 L257.1,671.1 L342.9,612.8 L428.6,622.0 L514.3,677.3 L600.0,711.5 L685.7,632.6 L771.4,666.7 L857.1,590.5 L942.9,599.2 L1028.6,573.5 L1114.3,556.8 L1200.0,642.3 L1200,800 Z" fill="#7A5A3C" opacity="1.00"/><rect width="1200" height="800" fill="#0C1A15" opacity="0.05"/></svg>