<svg xmlns="http://www.w3.org/2000/svg" viewBox="0 0 1200 800" preserveAspectRatio="xMidYMid slice"><defs><linearGradient id="sky6103" x1="0" y1="0" x2="0" y2="1"><stop offset="0%" stop-color="#BFD4E6"/><stop offset="55%" stop-color="#8FA9C4"/><stop offset="100%" stop-color="#C9A06A"/></linearGradient><radialGradient id="sun6103" cx="50%" cy="50%" r="50%"><stop offset="0%" stop-color="#FFF3DDf2"/><stop offset="100%" stop-color="#FFF3DD00"/></radialGradient></defs><rect width="1200" height="800" fill="url(#sky6103)"/><circle cx="816" cy="208" r="230" fill="url(#sun6103)"/><circle cx="816" cy="208" r="46" fill="#FFF3DDe5"/><path d="M0,800 L0,435.4 L0.0,435.4 L85.7,491.8 L171.4,344.5 L257.1,413.4 L342.9,454.8 L428.6,393.4 L514.3,443.8 L600.0,423.2 L685.7,505.4 L771.4,423.3 L857.1,365.3 L942.9,441.4 L1028.6,365.9 L1114.3,369.6 L1200.0,452.4 L1200,800 Z" fill="#7A5A3C" opacity="0.35"/><path d="M0,800 L0,539.7 L0.0,539.7 L85.7,472.8 L171.4,482.9 L257.1,477.1 L342.9,570.5 L428.6,530.1 L514.3,410.6 L600.0,597.6 L685.7,601.3 L771.4,540.6 L857.1,577.3 L942.9,563.3 L1028.6,421.3 L1114.3,502.9 L1200.0,540.0 L1200,800 Z" fill="#7A5A3C" opacity="0.60"/><path d="M0,800 L0,621.9 L0.0,621.9 L85.7,677.5 L171.4,642.2 L257.1,571.0 L342.9,705.7 L428.6,632.8 L514.3,680.4 L600.0,689.4 L685.7,659.7 L771.4,618.2 L857.1,649.7 L942.9,639.7 L1028.6,728.9 L1114.3,651.0 L1200.0,568.4 L1200,800 Z" fill="#7A5A3C" opacity="1.00"/><rect width="1200" height="800" fill="#0C1A15" opacity="0.05"/></svg>