<svg xmlns="http://www.w3.org/2000/svg" viewBox="0 0 1200 800" preserveAspectRatio="xMidYMid slice"><defs><linearGradient id="sky5034" x1="0" y1="0" x2="0" y2="1"><stop offset="0%" stop-color="#BFD4E6"/><stop offset="55%" stop-color="#8FA9C4"/><stop offset="100%" stop-color="#C9A06A"/></linearGradient><radialGradient id="sun5034" cx="50%" cy="50%" r="50%"><stop offset="0%" stop-color="#FFF3DDf2"/><stop offset="100%" stop-color="#FFF3DD00"/></radialGradient></defs><rect width="1200" height="800" fill="url(#sky5034)"/><circle cx="816" cy="208" r="230" fill="url(#sun5034)"/><circle cx="816" cy="208" r="46" fill="#FFF3DDe5"/><path d="M0,800 L0,488.1 L0.0,488.1 L85.7,478.6 L171.4,364.9 L257.1,406.9 L342.9,365.2 L428.6,333.4 L514.3,441.0 L600.0,363.2 L685.7,366.7 L771.4,444.5 L857.1,500.5 L942.9,463.3 L1028.6,405.9 L1114.3,410.9 L1200.0,394.2 L1200,800 Z" fill="#7A5A3C" opacity="0.35"/><path d="M0,800 L0,531.3 L0.0,531.3 L85.7,559.8 L171.4,479.4 L257.1,572.6 L342.9,596.5 L428.6,535.9 L514.3,480.2 L600.0,503.8 L685.7,562.0 L771.4,586.1 L857.1,471.3 L942.9,476.3 L1028.6,467.3 L1114.3,533.5 L1200.0,603.5 L1200,800 Z" fill="#7A5A3C" opacity="0.60"/><path d="M0,800 L0,733.3 L0.0,733.3 L85.7,727.3 L171.4,636.9 L257.1,609.5 L342.9,603.5 L428.6,657.4 L514.3,660.2 L600.0,638.7 L685.7,601.1 L771.4,599.6 L857.1,609.4 L942.9,683.8 L1028.6,642.0 L1114.3,622.0 L1200.0,674.5 L1200,800 Z" fill="#7A5A3C" opacity="1.00"/><rect width="1200" height="800" fill="#0C1A15" opacity="0.05"/></svg>