<svg xmlns="http://www.w3.org/2000/svg" viewBox="0 0 1200 800" preserveAspectRatio="xMidYMid slice"><defs><linearGradient id="sky7459" x1="0" y1="0" x2="0" y2="1"><stop offset="0%" stop-color="#BFD4E6"/><stop offset="55%" stop-color="#8FA9C4"/><stop offset="100%" stop-color="#C9A06A"/></linearGradient><radialGradient id="sun7459" cx="50%" cy="50%" r="50%"><stop offset="0%" stop-color="#FFF3DDf2"/><stop offset="100%" stop-color="#FFF3DD00"/></radialGradient></defs><rect width="1200" height="800" fill="url(#sky7459)"/><circle cx="816" cy="208" r="230" fill="url(#sun7459)"/><circle cx="816" cy="208" r="46" fill="#FFF3DDe5"/><path d="M0,800 L0,397.4 L0.0,397.4 L85.7,402.6 L171.4,501.5 L257.1,465.8 L342.9,455.4 L428.6,377.9 L514.3,442.2 L600.0,405.2 L685.7,370.4 L771.4,408.4 L857.1,417.6 L942.9,460.1 L1028.6,388.1 L1114.3,470.6 L1200.0,383.8 L1200,800 Z" fill="#7A5A3C" opacity="0.35"/><path d="M0,800 L0,448.5 L0.0,448.5 L85.7,442.9 L171.4,573.3 L257.1,571.2 L342.9,541.8 L428.6,572.7 L514.3,535.9 L600.0,558.4 L685.7,506.3 L771.4,571.4 L857.1,528.2 L942.9,536.9 L1028.6,576.9 L1114.3,525.2 L1200.0,534.4 L1200,800 Z" fill="#7A5A3C" opacity="0.60"/><path d="M0,800 L0,702.5 L0.0,702.5 L85.7,625.1 L171.4,561.5 L257.1,567.6 L342.9,639.4 L428.6,681.8 L514.3,594.2 L600.0,596.9 L685.7,596.2 L771.4,602.7 L857.1,688.8 L942.9,666.3 L1028.6,692.0 L1114.3,649.0 L1200.0,654.7 L1200,800 Z" fill="#7A5A3C" opacity="1.00"/><rect width="1200" height="800" fill="#0C1A15" opacity="0.05"/></svg>