<svg xmlns="http://www.w3.org/2000/svg" viewBox="0 0 1200 800" preserveAspectRatio="xMidYMid slice"><defs><linearGradient id="sky4001" x1="0" y1="0" x2="0" y2="1"><stop offset="0%" stop-color="#3A4A78"/><stop offset="55%" stop-color="#5B4A78"/><stop offset="100%" stop-color="#241A34"/></linearGradient><radialGradient id="sun4001" cx="50%" cy="50%" r="50%"><stop offset="0%" stop-color="#DCC8FFf2"/><stop offset="100%" stop-color="#DCC8FF00"/></radialGradient></defs><rect width="1200" height="800" fill="url(#sky4001)"/><circle cx="664" cy="6" r="1.1" fill="#fff" opacity="0.54"/><circle cx="431" cy="73" r="0.7" fill="#fff" opacity="0.60"/><circle cx="461" cy="306" r="1.0" fill="#fff" opacity="0.76"/><circle cx="1184" cy="134" r="1.2" fill="#fff" opacity="0.54"/><circle cx="605" cy="205" r="0.6" fill="#fff" opacity="0.84"/><circle cx="72" cy="251" r="1.1" fill="#fff" opacity="0.79"/><circle cx="241" cy="277" r="0.7" fill="#fff" opacity="0.90"/><circle cx="384" cy="60" r="0.7" fill="#fff" opacity="0.55"/><circle cx="746" cy="340" r="1.2" fill="#fff" opacity="0.80"/><circle cx="640" cy="398" r="1.2" fill="#fff" opacity="0.60"/><circle cx="981" cy="311" r="0.9" fill="#fff" opacity="0.69"/><circle cx="637" cy="394" r="1.3" fill="#fff" opacity="0.44"/><circle cx="209" cy="92" r="1.5" fill="#fff" opacity="0.73"/><circle cx="155" cy="300" r="0.6" fill="#fff" opacity="0.61"/><circle cx="977" cy="121" r="1.4" fill="#fff" opacity="0.36"/><circle cx="154" cy="136" r="1.3" fill="#fff" opacity="0.48"/><circle cx="776" cy="67" r="0.7" fill="#fff" opacity="0.52"/><circle cx="1114" cy="93" r="1.5" fill="#fff" opacity="0.67"/><circle cx="258" cy="385" r="1.5" fill="#fff" opacity="0.55"/><circle cx="19" cy="366" r="1.4" fill="#fff" opacity="0.50"/><circle cx="229" cy="256" r="1.2" fill="#fff" opacity="0.53"/><circle cx="248" cy="263" r="0.6" fill="#fff" opacity="0.33"/><circle cx="966" cy="135" r="0.6" fill="#fff" opacity="0.77"/><circle cx="1182" cy="366" r="0.8" fill="#fff" opacity="0.71"/><circle cx="1056" cy="357" r="1.0" fill="#fff" opacity="0.52"/><circle cx="330" cy="253" r="1.3" fill="#fff" opacity="0.59"/><circle cx="370" cy="359" r="1.6" fill="#fff" opacity="0.50"/><circle cx="781" cy="268" r="0.8" fill="#fff" opacity="0.60"/><circle cx="952" cy="375" r="0.9" fill="#fff" opacity="0.52"/><circle cx="162" cy="346" r="1.3" fill="#fff" opacity="0.65"/><circle cx="563" cy="39" r="1.3" fill="#fff" opacity="0.45"/><circle cx="281" cy="11" r="1.4" fill="#fff" opacity="0.80"/><circle cx="555" cy="34" r="0.5" fill="#fff" opacity="0.58"/><circle cx="660" cy="157" r="1.0" fill="#fff" opacity="0.49"/><circle cx="329" cy="266" r="0.6" fill="#fff" opacity="0.49"/><circle cx="583" cy="367" r="1.0" fill="#fff" opacity="0.62"/><circle cx="477" cy="29" r="1.1" fill="#fff" opacity="0.60"/><circle cx="1128" cy="69" r="0.5" fill="#fff" opacity="0.31"/><circle cx="518" cy="222" r="1.1" fill="#fff" opacity="0.55"/><circle cx="620" cy="275" r="0.9" fill="#fff" opacity="0.30"/><circle cx="714" cy="51" r="1.2" fill="#fff" opacity="0.64"/><circle cx="712" cy="18" r="1.5" fill="#fff" opacity="0.53"/><circle cx="318" cy="375" r="1.5" fill="#fff" opacity="0.44"/><circle cx="546" cy="327" r="1.3" fill="#fff" opacity="0.41"/><circle cx="85" cy="257" r="1.6" fill="#fff" opacity="0.53"/><circle cx="1071" cy="140" r="0.9" fill="#fff" opacity="0.62"/><circle cx="573" cy="356" r="1.4" fill="#fff" opacity="0.46"/><circle cx="712" cy="90" r="0.5" fill="#fff" opacity="0.49"/><circle cx="396" cy="12" r="1.3" fill="#fff" opacity="0.57"/><circle cx="105" cy="254" r="1.2" fill="#fff" opacity="0.70"/><circle cx="657" cy="41" r="1.6" fill="#fff" opacity="0.61"/><circle cx="958" cy="284" r="1.0" fill="#fff" opacity="0.48"/><circle cx="142" cy="25" r="1.5" fill="#fff" opacity="0.49"/><circle cx="302" cy="109" r="1.5" fill="#fff" opacity="0.35"/><circle cx="654" cy="134" r="1.3" fill="#fff" opacity="0.71"/><circle cx="282" cy="25" r="1.5" fill="#fff" opacity="0.36"/><circle cx="369" cy="158" r="0.7" fill="#fff" opacity="0.84"/><circle cx="1120" cy="267" r="1.5" fill="#fff" opacity="0.78"/><circle cx="52" cy="348" r="0.6" fill="#fff" opacity="0.46"/><circle cx="349" cy="87" r="1.4" fill="#fff" opacity="0.55"/><circle cx="264" cy="224" r="230" fill="url(#sun4001)"/><circle cx="264" cy="224" r="46" fill="#DCC8FFe5"/><path d="M0,800 L0,376.6 L0.0,376.6 L85.7,347.4 L171.4,373.4 L257.1,472.1 L342.9,471.3 L428.6,474.2 L514.3,473.9 L600.0,401.7 L685.7,413.5 L771.4,429.6 L857.1,465.5 L942.9,454.3 L1028.6,435.2 L1114.3,430.4 L1200.0,420.6 L1200,800 Z" fill="#171426" opacity="0.35"/><path d="M0,800 L0,559.6 L0.0,559.6 L85.7,516.9 L171.4,507.5 L257.1,543.7 L342.9,500.3 L428.6,545.2 L514.3,472.0 L600.0,561.4 L685.7,542.5 L771.4,451.5 L857.1,564.9 L942.9,581.1 L1028.6,618.2 L1114.3,434.0 L1200.0,416.9 L1200,800 Z" fill="#171426" opacity="0.60"/><path d="M1072,494 Q1097,440 1114,434 Q1131,440 1156,494 Q1114,464 1072,494 Z" fill="#F7FAFC" opacity="0.9"/><path d="M1158,477 Q1183,423 1200,417 Q1217,423 1242,477 Q1200,447 1158,477 Z" fill="#F7FAFC" opacity="0.9"/><path d="M0,800 L0,558.1 L0.0,558.1 L85.7,577.7 L171.4,654.4 L257.1,569.3 L342.9,671.6 L428.6,656.8 L514.3,692.2 L600.0,706.9 L685.7,654.9 L771.4,639.8 L857.1,686.8 L942.9,561.0 L1028.6,536.1 L1114.3,704.9 L1200.0,696.3 L1200,800 Z" fill="#171426" opacity="1.00"/><rect x="0" y="688" width="1200" height="112" fill="#241A348c"/><rect x="0" y="688" width="1200" height="2" fill="#ffffff" opacity="0.25"/><rect width="1200" height="800" fill="#0C1A15" opacity="0.05"/></svg>