<svg xmlns="http://www.w3.org/2000/svg" viewBox="0 0 1200 800" preserveAspectRatio="xMidYMid slice"><defs><linearGradient id="sky7367" x1="0" y1="0" x2="0" y2="1"><stop offset="0%" stop-color="#3A4A78"/><stop offset="55%" stop-color="#5B4A78"/><stop offset="100%" stop-color="#241A34"/></linearGradient><radialGradient id="sun7367" cx="50%" cy="50%" r="50%"><stop offset="0%" stop-color="#DCC8FFf2"/><stop offset="100%" stop-color="#DCC8FF00"/></radialGradient></defs><rect width="1200" height="800" fill="url(#sky7367)"/><circle cx="876" cy="261" r="0.6" fill="#fff" opacity="0.57"/><circle cx="1105" cy="255" r="1.0" fill="#fff" opacity="0.70"/><circle cx="827" cy="153" r="1.1" fill="#fff" opacity="0.59"/><circle cx="402" cy="276" r="1.2" fill="#fff" opacity="0.66"/><circle cx="1062" cy="313" r="1.2" fill="#fff" opacity="0.68"/><circle cx="1044" cy="303" r="0.9" fill="#fff" opacity="0.53"/><circle cx="749" cy="387" r="1.4" fill="#fff" opacity="0.55"/><circle cx="310" cy="263" r="1.6" fill="#fff" opacity="0.56"/><circle cx="911" cy="393" r="1.5" fill="#fff" opacity="0.83"/><circle cx="294" cy="81" r="1.2" fill="#fff" opacity="0.68"/><circle cx="966" cy="192" r="1.5" fill="#fff" opacity="0.49"/><circle cx="796" cy="86" r="0.9" fill="#fff" opacity="0.66"/><circle cx="1127" cy="226" r="1.3" fill="#fff" opacity="0.35"/><circle cx="586" cy="319" r="1.1" fill="#fff" opacity="0.35"/><circle cx="841" cy="224" r="0.5" fill="#fff" opacity="0.89"/><circle cx="701" cy="276" r="0.6" fill="#fff" opacity="0.68"/><circle cx="702" cy="244" r="1.3" fill="#fff" opacity="0.66"/><circle cx="730" cy="215" r="0.7" fill="#fff" opacity="0.45"/><circle cx="441" cy="305" r="1.2" fill="#fff" opacity="0.67"/><circle cx="745" cy="177" r="1.6" fill="#fff" opacity="0.70"/><circle cx="1003" cy="20" r="0.6" fill="#fff" opacity="0.80"/><circle cx="94" cy="265" r="1.5" fill="#fff" opacity="0.46"/><circle cx="27" cy="83" r="0.8" fill="#fff" opacity="0.41"/><circle cx="1183" cy="317" r="0.9" fill="#fff" opacity="0.84"/><circle cx="746" cy="290" r="1.2" fill="#fff" opacity="0.43"/><circle cx="658" cy="120" r="1.5" fill="#fff" opacity="0.82"/><circle cx="1188" cy="66" r="1.2" fill="#fff" opacity="0.49"/><circle cx="1162" cy="399" r="0.8" fill="#fff" opacity="0.46"/><circle cx="234" cy="80" r="0.5" fill="#fff" opacity="0.66"/><circle cx="1084" cy="35" r="1.5" fill="#fff" opacity="0.56"/><circle cx="660" cy="291" r="1.2" fill="#fff" opacity="0.64"/><circle cx="546" cy="292" r="0.5" fill="#fff" opacity="0.64"/><circle cx="100" cy="177" r="1.3" fill="#fff" opacity="0.59"/><circle cx="872" cy="75" r="0.6" fill="#fff" opacity="0.49"/><circle cx="769" cy="95" r="0.6" fill="#fff" opacity="0.81"/><circle cx="561" cy="374" r="1.5" fill="#fff" opacity="0.41"/><circle cx="744" cy="88" r="0.9" fill="#fff" opacity="0.34"/><circle cx="602" cy="318" r="1.2" fill="#fff" opacity="0.68"/><circle cx="790" cy="243" r="1.1" fill="#fff" opacity="0.43"/><circle cx="862" cy="294" r="0.7" fill="#fff" opacity="0.57"/><circle cx="925" cy="320" r="1.3" fill="#fff" opacity="0.31"/><circle cx="661" cy="313" r="0.6" fill="#fff" opacity="0.75"/><circle cx="190" cy="388" r="1.3" fill="#fff" opacity="0.84"/><circle cx="932" cy="188" r="1.0" fill="#fff" opacity="0.72"/><circle cx="265" cy="99" r="0.8" fill="#fff" opacity="0.58"/><circle cx="742" cy="52" r="0.7" fill="#fff" opacity="0.85"/><circle cx="395" cy="72" r="0.6" fill="#fff" opacity="0.66"/><circle cx="1067" cy="147" r="1.0" fill="#fff" opacity="0.64"/><circle cx="744" cy="199" r="1.6" fill="#fff" opacity="0.65"/><circle cx="353" cy="302" r="0.7" fill="#fff" opacity="0.31"/><circle cx="577" cy="237" r="0.6" fill="#fff" opacity="0.79"/><circle cx="70" cy="299" r="1.0" fill="#fff" opacity="0.61"/><circle cx="1193" cy="130" r="0.8" fill="#fff" opacity="0.33"/><circle cx="414" cy="310" r="0.6" fill="#fff" opacity="0.48"/><circle cx="629" cy="29" r="1.6" fill="#fff" opacity="0.66"/><circle cx="676" cy="155" r="0.7" fill="#fff" opacity="0.31"/><circle cx="546" cy="351" r="0.7" fill="#fff" opacity="0.69"/><circle cx="1200" cy="261" r="0.5" fill="#fff" opacity="0.61"/><circle cx="429" cy="169" r="1.0" fill="#fff" opacity="0.84"/><circle cx="138" cy="243" r="0.9" fill="#fff" opacity="0.53"/><circle cx="264" cy="224" r="230" fill="url(#sun7367)"/><circle cx="264" cy="224" r="46" fill="#DCC8FFe5"/><path d="M0,800 L0,443.8 L0.0,443.8 L85.7,461.9 L171.4,416.7 L257.1,403.4 L342.9,441.8 L428.6,480.8 L514.3,470.9 L600.0,498.5 L685.7,409.1 L771.4,485.2 L857.1,381.5 L942.9,383.5 L1028.6,335.6 L1114.3,354.0 L1200.0,409.8 L1200,800 Z" fill="#171426" opacity="0.35"/><path d="M0,800 L0,571.8 L0.0,571.8 L85.7,554.3 L171.4,521.9 L257.1,556.0 L342.9,534.5 L428.6,563.1 L514.3,566.4 L600.0,472.3 L685.7,623.3 L771.4,459.0 L857.1,532.8 L942.9,489.0 L1028.6,625.4 L1114.3,611.3 L1200.0,620.4 L1200,800 Z" fill="#171426" opacity="0.60"/><path d="M0,800 L0,625.2 L0.0,625.2 L85.7,619.6 L171.4,624.4 L257.1,673.9 L342.9,592.7 L428.6,604.9 L514.3,711.6 L600.0,733.1 L685.7,570.0 L771.4,675.3 L857.1,680.2 L942.9,643.9 L1028.6,658.0 L1114.3,656.8 L1200.0,692.0 L1200,800 Z" fill="#171426" opacity="1.00"/><rect x="0" y="688" width="1200" height="112" fill="#241A348c"/><rect x="0" y="688" width="1200" height="2" fill="#ffffff" opacity="0.25"/><rect width="1200" height="800" fill="#0C1A15" opacity="0.05"/></svg>