<svg xmlns="http://www.w3.org/2000/svg" viewBox="0 0 1200 800" preserveAspectRatio="xMidYMid slice"><defs><linearGradient id="sky6298" x1="0" y1="0" x2="0" y2="1"><stop offset="0%" stop-color="#3A4A78"/><stop offset="55%" stop-color="#5B4A78"/><stop offset="100%" stop-color="#241A34"/></linearGradient><radialGradient id="sun6298" cx="50%" cy="50%" r="50%"><stop offset="0%" stop-color="#DCC8FFf2"/><stop offset="100%" stop-color="#DCC8FF00"/></radialGradient></defs><rect width="1200" height="800" fill="url(#sky6298)"/><circle cx="249" cy="376" r="1.3" fill="#fff" opacity="0.42"/><circle cx="1024" cy="350" r="1.0" fill="#fff" opacity="0.77"/><circle cx="240" cy="151" r="1.2" fill="#fff" opacity="0.71"/><circle cx="615" cy="107" r="0.9" fill="#fff" opacity="0.72"/><circle cx="1053" cy="194" r="0.7" fill="#fff" opacity="0.71"/><circle cx="1082" cy="176" r="1.2" fill="#fff" opacity="0.70"/><circle cx="1030" cy="164" r="0.6" fill="#fff" opacity="0.62"/><circle cx="128" cy="193" r="0.5" fill="#fff" opacity="0.72"/><circle cx="690" cy="6" r="1.4" fill="#fff" opacity="0.32"/><circle cx="176" cy="87" r="1.5" fill="#fff" opacity="0.84"/><circle cx="1036" cy="215" r="1.5" fill="#fff" opacity="0.34"/><circle cx="396" cy="219" r="0.7" fill="#fff" opacity="0.86"/><circle cx="296" cy="399" r="1.3" fill="#fff" opacity="0.80"/><circle cx="1022" cy="5" r="0.6" fill="#fff" opacity="0.64"/><circle cx="322" cy="117" r="0.8" fill="#fff" opacity="0.72"/><circle cx="838" cy="53" r="1.2" fill="#fff" opacity="0.50"/><circle cx="34" cy="163" r="1.3" fill="#fff" opacity="0.88"/><circle cx="668" cy="40" r="1.3" fill="#fff" opacity="0.75"/><circle cx="914" cy="156" r="0.8" fill="#fff" opacity="0.88"/><circle cx="336" cy="139" r="0.7" fill="#fff" opacity="0.31"/><circle cx="1024" cy="383" r="0.5" fill="#fff" opacity="0.35"/><circle cx="1197" cy="293" r="1.5" fill="#fff" opacity="0.54"/><circle cx="267" cy="326" r="1.5" fill="#fff" opacity="0.90"/><circle cx="787" cy="264" r="0.9" fill="#fff" opacity="0.65"/><circle cx="863" cy="126" r="1.3" fill="#fff" opacity="0.41"/><circle cx="957" cy="253" r="0.7" fill="#fff" opacity="0.64"/><circle cx="228" cy="103" r="1.4" fill="#fff" opacity="0.87"/><circle cx="34" cy="32" r="0.6" fill="#fff" opacity="0.59"/><circle cx="54" cy="392" r="1.1" fill="#fff" opacity="0.57"/><circle cx="396" cy="272" r="1.6" fill="#fff" opacity="0.52"/><circle cx="485" cy="327" r="1.1" fill="#fff" opacity="0.50"/><circle cx="163" cy="15" r="0.8" fill="#fff" opacity="0.43"/><circle cx="620" cy="87" r="1.2" fill="#fff" opacity="0.80"/><circle cx="527" cy="83" r="1.2" fill="#fff" opacity="0.57"/><circle cx="494" cy="257" r="0.6" fill="#fff" opacity="0.40"/><circle cx="253" cy="120" r="0.8" fill="#fff" opacity="0.81"/><circle cx="479" cy="305" r="0.8" fill="#fff" opacity="0.32"/><circle cx="1030" cy="376" r="0.9" fill="#fff" opacity="0.62"/><circle cx="231" cy="365" r="1.3" fill="#fff" opacity="0.47"/><circle cx="1171" cy="38" r="0.6" fill="#fff" opacity="0.64"/><circle cx="1167" cy="319" r="0.9" fill="#fff" opacity="0.53"/><circle cx="543" cy="337" r="0.5" fill="#fff" opacity="0.82"/><circle cx="982" cy="315" r="1.0" fill="#fff" opacity="0.62"/><circle cx="895" cy="175" r="1.0" fill="#fff" opacity="0.69"/><circle cx="842" cy="320" r="0.6" fill="#fff" opacity="0.32"/><circle cx="434" cy="140" r="0.7" fill="#fff" opacity="0.46"/><circle cx="234" cy="268" r="1.0" fill="#fff" opacity="0.86"/><circle cx="1083" cy="29" r="1.5" fill="#fff" opacity="0.65"/><circle cx="640" cy="303" r="1.2" fill="#fff" opacity="0.88"/><circle cx="816" cy="19" r="0.6" fill="#fff" opacity="0.34"/><circle cx="111" cy="118" r="0.6" fill="#fff" opacity="0.78"/><circle cx="640" cy="28" r="0.8" fill="#fff" opacity="0.77"/><circle cx="777" cy="381" r="0.8" fill="#fff" opacity="0.59"/><circle cx="691" cy="294" r="0.9" fill="#fff" opacity="0.56"/><circle cx="283" cy="106" r="1.3" fill="#fff" opacity="0.86"/><circle cx="306" cy="351" r="0.8" fill="#fff" opacity="0.66"/><circle cx="120" cy="50" r="0.9" fill="#fff" opacity="0.67"/><circle cx="821" cy="237" r="1.2" fill="#fff" opacity="0.72"/><circle cx="322" cy="359" r="0.9" fill="#fff" opacity="0.49"/><circle cx="904" cy="218" r="1.1" fill="#fff" opacity="0.60"/><circle cx="264" cy="224" r="230" fill="url(#sun6298)"/><circle cx="264" cy="224" r="46" fill="#DCC8FFe5"/><path d="M0,800 L0,472.3 L0.0,472.3 L85.7,360.1 L171.4,376.1 L257.1,425.4 L342.9,416.6 L428.6,387.6 L514.3,419.9 L600.0,404.0 L685.7,483.6 L771.4,465.3 L857.1,453.0 L942.9,398.7 L1028.6,330.2 L1114.3,369.2 L1200.0,448.9 L1200,800 Z" fill="#171426" opacity="0.35"/><path d="M0,800 L0,542.9 L0.0,542.9 L85.7,576.2 L171.4,511.7 L257.1,557.9 L342.9,455.9 L428.6,560.2 L514.3,561.9 L600.0,510.3 L685.7,519.3 L771.4,556.1 L857.1,465.9 L942.9,462.9 L1028.6,430.9 L1114.3,550.1 L1200.0,554.6 L1200,800 Z" fill="#171426" opacity="0.60"/><path d="M987,491 Q1012,437 1029,431 Q1045,437 1071,491 Q1029,461 987,491 Z" fill="#F7FAFC" opacity="0.9"/><path d="M0,800 L0,697.1 L0.0,697.1 L85.7,590.7 L171.4,550.6 L257.1,598.0 L342.9,590.0 L428.6,603.7 L514.3,642.4 L600.0,586.6 L685.7,696.6 L771.4,622.5 L857.1,633.3 L942.9,680.6 L1028.6,608.2 L1114.3,636.6 L1200.0,637.2 L1200,800 Z" fill="#171426" opacity="1.00"/><rect x="0" y="688" width="1200" height="112" fill="#241A348c"/><rect x="0" y="688" width="1200" height="2" fill="#ffffff" opacity="0.25"/><rect width="1200" height="800" fill="#0C1A15" opacity="0.05"/></svg>