<svg xmlns="http://www.w3.org/2000/svg" viewBox="0 0 1200 800" preserveAspectRatio="xMidYMid slice"><defs><linearGradient id="sky4942" x1="0" y1="0" x2="0" y2="1"><stop offset="0%" stop-color="#3A4A78"/><stop offset="55%" stop-color="#5B4A78"/><stop offset="100%" stop-color="#241A34"/></linearGradient><radialGradient id="sun4942" cx="50%" cy="50%" r="50%"><stop offset="0%" stop-color="#DCC8FFf2"/><stop offset="100%" stop-color="#DCC8FF00"/></radialGradient></defs><rect width="1200" height="800" fill="url(#sky4942)"/><circle cx="1159" cy="237" r="1.5" fill="#fff" opacity="0.45"/><circle cx="648" cy="341" r="1.5" fill="#fff" opacity="0.31"/><circle cx="979" cy="91" r="0.8" fill="#fff" opacity="0.34"/><circle cx="921" cy="301" r="0.7" fill="#fff" opacity="0.52"/><circle cx="222" cy="393" r="1.3" fill="#fff" opacity="0.31"/><circle cx="797" cy="245" r="1.4" fill="#fff" opacity="0.41"/><circle cx="733" cy="160" r="1.6" fill="#fff" opacity="0.49"/><circle cx="1047" cy="296" r="0.7" fill="#fff" opacity="0.81"/><circle cx="9" cy="91" r="1.5" fill="#fff" opacity="0.74"/><circle cx="367" cy="390" r="1.3" fill="#fff" opacity="0.46"/><circle cx="700" cy="86" r="1.3" fill="#fff" opacity="0.76"/><circle cx="202" cy="187" r="1.2" fill="#fff" opacity="0.53"/><circle cx="790" cy="100" r="1.2" fill="#fff" opacity="0.82"/><circle cx="505" cy="262" r="1.6" fill="#fff" opacity="0.83"/><circle cx="199" cy="110" r="0.5" fill="#fff" opacity="0.81"/><circle cx="147" cy="276" r="0.7" fill="#fff" opacity="0.67"/><circle cx="1076" cy="354" r="0.8" fill="#fff" opacity="0.88"/><circle cx="425" cy="194" r="0.8" fill="#fff" opacity="0.42"/><circle cx="786" cy="99" r="0.5" fill="#fff" opacity="0.49"/><circle cx="552" cy="67" r="1.4" fill="#fff" opacity="0.80"/><circle cx="592" cy="281" r="1.5" fill="#fff" opacity="0.54"/><circle cx="870" cy="378" r="1.4" fill="#fff" opacity="0.57"/><circle cx="1078" cy="204" r="1.1" fill="#fff" opacity="0.89"/><circle cx="217" cy="309" r="1.2" fill="#fff" opacity="0.55"/><circle cx="501" cy="13" r="1.2" fill="#fff" opacity="0.31"/><circle cx="148" cy="78" r="1.2" fill="#fff" opacity="0.88"/><circle cx="721" cy="202" r="1.1" fill="#fff" opacity="0.52"/><circle cx="791" cy="9" r="1.4" fill="#fff" opacity="0.46"/><circle cx="1099" cy="333" r="0.9" fill="#fff" opacity="0.78"/><circle cx="1129" cy="216" r="1.3" fill="#fff" opacity="0.65"/><circle cx="1066" cy="11" r="1.0" fill="#fff" opacity="0.35"/><circle cx="601" cy="252" r="0.7" fill="#fff" opacity="0.78"/><circle cx="725" cy="175" r="0.6" fill="#fff" opacity="0.66"/><circle cx="1151" cy="159" r="1.1" fill="#fff" opacity="0.52"/><circle cx="739" cy="153" r="0.8" fill="#fff" opacity="0.48"/><circle cx="27" cy="252" r="1.4" fill="#fff" opacity="0.42"/><circle cx="211" cy="77" r="1.2" fill="#fff" opacity="0.36"/><circle cx="973" cy="202" r="1.6" fill="#fff" opacity="0.80"/><circle cx="142" cy="290" r="1.0" fill="#fff" opacity="0.53"/><circle cx="667" cy="227" r="1.5" fill="#fff" opacity="0.60"/><circle cx="401" cy="26" r="1.1" fill="#fff" opacity="0.74"/><circle cx="252" cy="70" r="1.4" fill="#fff" opacity="0.85"/><circle cx="1103" cy="7" r="1.5" fill="#fff" opacity="0.50"/><circle cx="259" cy="6" r="1.4" fill="#fff" opacity="0.37"/><circle cx="133" cy="44" r="1.1" fill="#fff" opacity="0.35"/><circle cx="404" cy="188" r="1.2" fill="#fff" opacity="0.82"/><circle cx="282" cy="55" r="1.1" fill="#fff" opacity="0.40"/><circle cx="1191" cy="140" r="1.6" fill="#fff" opacity="0.73"/><circle cx="917" cy="382" r="1.2" fill="#fff" opacity="0.77"/><circle cx="649" cy="74" r="1.4" fill="#fff" opacity="0.52"/><circle cx="1071" cy="221" r="1.4" fill="#fff" opacity="0.41"/><circle cx="460" cy="131" r="0.9" fill="#fff" opacity="0.77"/><circle cx="737" cy="144" r="0.6" fill="#fff" opacity="0.79"/><circle cx="190" cy="88" r="0.8" fill="#fff" opacity="0.47"/><circle cx="291" cy="256" r="0.6" fill="#fff" opacity="0.40"/><circle cx="1025" cy="52" r="1.3" fill="#fff" opacity="0.72"/><circle cx="373" cy="125" r="1.1" fill="#fff" opacity="0.75"/><circle cx="268" cy="69" r="0.5" fill="#fff" opacity="0.66"/><circle cx="952" cy="390" r="1.3" fill="#fff" opacity="0.40"/><circle cx="527" cy="386" r="1.1" fill="#fff" opacity="0.34"/><circle cx="264" cy="224" r="230" fill="url(#sun4942)"/><circle cx="264" cy="224" r="46" fill="#DCC8FFe5"/><path d="M0,800 L0,465.8 L0.0,465.8 L85.7,365.0 L171.4,421.9 L257.1,358.4 L342.9,384.9 L428.6,366.1 L514.3,414.6 L600.0,466.5 L685.7,399.1 L771.4,343.2 L857.1,431.2 L942.9,447.3 L1028.6,355.0 L1114.3,471.5 L1200.0,436.1 L1200,800 Z" fill="#171426" opacity="0.35"/><path d="M0,800 L0,530.4 L0.0,530.4 L85.7,639.4 L171.4,624.0 L257.1,565.2 L342.9,577.3 L428.6,458.7 L514.3,470.9 L600.0,601.4 L685.7,579.9 L771.4,558.9 L857.1,474.3 L942.9,450.7 L1028.6,496.2 L1114.3,583.4 L1200.0,604.8 L1200,800 Z" fill="#171426" opacity="0.60"/><path d="M0,800 L0,580.6 L0.0,580.6 L85.7,632.3 L171.4,679.2 L257.1,637.0 L342.9,604.3 L428.6,599.7 L514.3,620.4 L600.0,678.6 L685.7,566.6 L771.4,666.1 L857.1,641.2 L942.9,726.4 L1028.6,651.8 L1114.3,633.4 L1200.0,616.7 L1200,800 Z" fill="#171426" opacity="1.00"/><rect x="0" y="688" width="1200" height="112" fill="#241A348c"/><rect x="0" y="688" width="1200" height="2" fill="#ffffff" opacity="0.25"/><rect width="1200" height="800" fill="#0C1A15" opacity="0.05"/></svg>