<svg xmlns="http://www.w3.org/2000/svg" viewBox="0 0 1200 800" preserveAspectRatio="xMidYMid slice"><defs><linearGradient id="sky2755" x1="0" y1="0" x2="0" y2="1"><stop offset="0%" stop-color="#E7EFE4"/><stop offset="55%" stop-color="#A9C6AE"/><stop offset="100%" stop-color="#3E6B57"/></linearGradient><radialGradient id="sun2755" cx="50%" cy="50%" r="50%"><stop offset="0%" stop-color="#F3FBEFf2"/><stop offset="100%" stop-color="#F3FBEF00"/></radialGradient></defs><rect width="1200" height="800" fill="url(#sky2755)"/><circle cx="360" cy="208" r="230" fill="url(#sun2755)"/><circle cx="360" cy="208" r="46" fill="#F3FBEFe5"/><path d="M0,800 L0,478.7 L0.0,478.7 L85.7,396.6 L171.4,392.8 L257.1,406.0 L342.9,384.5 L428.6,408.1 L514.3,439.1 L600.0,425.6 L685.7,418.2 L771.4,436.6 L857.1,372.4 L942.9,383.2 L1028.6,435.0 L1114.3,410.1 L1200.0,438.4 L1200,800 Z" fill="#173E32" opacity="0.35"/><path d="M0,800 L0,480.6 L0.0,480.6 L85.7,546.0 L171.4,495.4 L257.1,564.4 L342.9,562.1 L428.6,504.1 L514.3,591.7 L600.0,554.0 L685.7,554.3 L771.4,490.5 L857.1,405.4 L942.9,478.3 L1028.6,497.4 L1114.3,481.3 L1200.0,580.3 L1200,800 Z" fill="#173E32" opacity="0.60"/><path d="M815,465 Q840,411 857,405 Q874,411 899,465 Q857,435 815,465 Z" fill="#F7FAFC" opacity="0.9"/><path d="M0,800 L0,600.9 L0.0,600.9 L85.7,571.9 L171.4,689.5 L257.1,689.5 L342.9,610.9 L428.6,681.1 L514.3,672.7 L600.0,600.8 L685.7,658.1 L771.4,671.3 L857.1,695.0 L942.9,680.5 L1028.6,581.3 L1114.3,585.3 L1200.0,676.9 L1200,800 Z" fill="#173E32" opacity="1.00"/><rect width="1200" height="800" fill="#0C1A15" opacity="0.05"/></svg>