<svg xmlns="http://www.w3.org/2000/svg" viewBox="0 0 1200 800" preserveAspectRatio="xMidYMid slice"><defs><linearGradient id="sky8389" x1="0" y1="0" x2="0" y2="1"><stop offset="0%" stop-color="#E7EFE4"/><stop offset="55%" stop-color="#A9C6AE"/><stop offset="100%" stop-color="#3E6B57"/></linearGradient><radialGradient id="sun8389" cx="50%" cy="50%" r="50%"><stop offset="0%" stop-color="#F3FBEFf2"/><stop offset="100%" stop-color="#F3FBEF00"/></radialGradient></defs><rect width="1200" height="800" fill="url(#sky8389)"/><circle cx="360" cy="208" r="230" fill="url(#sun8389)"/><circle cx="360" cy="208" r="46" fill="#F3FBEFe5"/><path d="M0,800 L0,485.1 L0.0,485.1 L85.7,439.1 L171.4,446.9 L257.1,418.5 L342.9,335.9 L428.6,411.6 L514.3,457.6 L600.0,443.7 L685.7,447.2 L771.4,433.1 L857.1,385.9 L942.9,377.5 L1028.6,423.5 L1114.3,432.8 L1200.0,452.8 L1200,800 Z" fill="#173E32" opacity="0.35"/><path d="M0,800 L0,585.8 L0.0,585.8 L85.7,443.5 L171.4,446.0 L257.1,506.5 L342.9,516.5 L428.6,598.1 L514.3,560.6 L600.0,541.3 L685.7,462.9 L771.4,630.4 L857.1,614.3 L942.9,469.8 L1028.6,503.0 L1114.3,551.1 L1200.0,472.1 L1200,800 Z" fill="#173E32" opacity="0.60"/><path d="M0,800 L0,610.9 L0.0,610.9 L85.7,592.8 L171.4,618.0 L257.1,637.0 L342.9,659.8 L428.6,585.2 L514.3,543.4 L600.0,590.6 L685.7,710.9 L771.4,638.4 L857.1,594.6 L942.9,552.3 L1028.6,639.5 L1114.3,716.7 L1200.0,614.5 L1200,800 Z" fill="#173E32" opacity="1.00"/><rect width="1200" height="800" fill="#0C1A15" opacity="0.05"/></svg>