<svg xmlns="http://www.w3.org/2000/svg" viewBox="0 0 1200 800" preserveAspectRatio="xMidYMid slice"><defs><linearGradient id="sky7320" x1="0" y1="0" x2="0" y2="1"><stop offset="0%" stop-color="#E7EFE4"/><stop offset="55%" stop-color="#A9C6AE"/><stop offset="100%" stop-color="#3E6B57"/></linearGradient><radialGradient id="sun7320" cx="50%" cy="50%" r="50%"><stop offset="0%" stop-color="#F3FBEFf2"/><stop offset="100%" stop-color="#F3FBEF00"/></radialGradient></defs><rect width="1200" height="800" fill="url(#sky7320)"/><circle cx="360" cy="208" r="230" fill="url(#sun7320)"/><circle cx="360" cy="208" r="46" fill="#F3FBEFe5"/><path d="M0,800 L0,361.5 L0.0,361.5 L85.7,439.9 L171.4,483.7 L257.1,495.0 L342.9,409.9 L428.6,363.2 L514.3,372.3 L600.0,431.0 L685.7,444.2 L771.4,412.4 L857.1,456.7 L942.9,421.9 L1028.6,471.8 L1114.3,383.7 L1200.0,343.8 L1200,800 Z" fill="#173E32" opacity="0.35"/><path d="M0,800 L0,576.0 L0.0,576.0 L85.7,501.6 L171.4,549.7 L257.1,526.7 L342.9,585.6 L428.6,493.2 L514.3,495.3 L600.0,436.3 L685.7,584.7 L771.4,623.8 L857.1,502.1 L942.9,531.2 L1028.6,466.8 L1114.3,435.5 L1200.0,604.8 L1200,800 Z" fill="#173E32" opacity="0.60"/><path d="M558,496 Q583,442 600,436 Q617,442 642,496 Q600,466 558,496 Z" fill="#F7FAFC" opacity="0.9"/><path d="M1072,496 Q1097,442 1114,436 Q1131,442 1156,496 Q1114,466 1072,496 Z" fill="#F7FAFC" opacity="0.9"/><path d="M0,800 L0,615.5 L0.0,615.5 L85.7,629.3 L171.4,577.3 L257.1,600.4 L342.9,594.5 L428.6,597.6 L514.3,582.9 L600.0,581.6 L685.7,632.3 L771.4,711.2 L857.1,598.8 L942.9,596.1 L1028.6,694.7 L1114.3,690.9 L1200.0,599.9 L1200,800 Z" fill="#173E32" opacity="1.00"/><rect width="1200" height="800" fill="#0C1A15" opacity="0.05"/></svg>