<svg xmlns="http://www.w3.org/2000/svg" viewBox="0 0 1200 800" preserveAspectRatio="xMidYMid slice"><defs><linearGradient id="sky1686" x1="0" y1="0" x2="0" y2="1"><stop offset="0%" stop-color="#E7EFE4"/><stop offset="55%" stop-color="#A9C6AE"/><stop offset="100%" stop-color="#3E6B57"/></linearGradient><radialGradient id="sun1686" cx="50%" cy="50%" r="50%"><stop offset="0%" stop-color="#F3FBEFf2"/><stop offset="100%" stop-color="#F3FBEF00"/></radialGradient></defs><rect width="1200" height="800" fill="url(#sky1686)"/><circle cx="360" cy="208" r="230" fill="url(#sun1686)"/><circle cx="360" cy="208" r="46" fill="#F3FBEFe5"/><path d="M0,800 L0,399.8 L0.0,399.8 L85.7,359.4 L171.4,373.2 L257.1,383.6 L342.9,394.2 L428.6,355.2 L514.3,472.7 L600.0,465.2 L685.7,386.5 L771.4,396.1 L857.1,406.7 L942.9,409.5 L1028.6,452.9 L1114.3,329.4 L1200.0,364.1 L1200,800 Z" fill="#173E32" opacity="0.35"/><path d="M0,800 L0,507.4 L0.0,507.4 L85.7,585.6 L171.4,620.2 L257.1,634.8 L342.9,525.7 L428.6,475.2 L514.3,587.2 L600.0,575.9 L685.7,520.6 L771.4,537.1 L857.1,564.7 L942.9,465.4 L1028.6,464.1 L1114.3,567.8 L1200.0,612.0 L1200,800 Z" fill="#173E32" opacity="0.60"/><path d="M0,800 L0,717.1 L0.0,717.1 L85.7,653.8 L171.4,587.5 L257.1,653.9 L342.9,743.3 L428.6,601.0 L514.3,660.1 L600.0,674.2 L685.7,656.3 L771.4,562.9 L857.1,578.8 L942.9,639.2 L1028.6,633.6 L1114.3,564.3 L1200.0,579.1 L1200,800 Z" fill="#173E32" opacity="1.00"/><rect width="1200" height="800" fill="#0C1A15" opacity="0.05"/></svg>