<svg xmlns="http://www.w3.org/2000/svg" viewBox="0 0 1200 800" preserveAspectRatio="xMidYMid slice"><defs><linearGradient id="sky1352" x1="0" y1="0" x2="0" y2="1"><stop offset="0%" stop-color="#DDEBF2"/><stop offset="55%" stop-color="#9FC4D6"/><stop offset="100%" stop-color="#4A7C8C"/></linearGradient><radialGradient id="sun1352" cx="50%" cy="50%" r="50%"><stop offset="0%" stop-color="#F4FBFFf2"/><stop offset="100%" stop-color="#F4FBFF00"/></radialGradient></defs><rect width="1200" height="800" fill="url(#sky1352)"/><circle cx="336" cy="192" r="230" fill="url(#sun1352)"/><circle cx="336" cy="192" r="46" fill="#F4FBFFe5"/><path d="M0,800 L0,412.9 L0.0,412.9 L85.7,497.5 L171.4,481.0 L257.1,464.3 L342.9,462.9 L428.6,403.5 L514.3,447.5 L600.0,358.3 L685.7,374.0 L771.4,473.3 L857.1,402.4 L942.9,450.3 L1028.6,381.0 L1114.3,357.2 L1200.0,377.2 L1200,800 Z" fill="#22414C" opacity="0.35"/><path d="M0,800 L0,529.9 L0.0,529.9 L85.7,432.0 L171.4,547.2 L257.1,568.8 L342.9,466.7 L428.6,466.9 L514.3,555.6 L600.0,516.1 L685.7,617.6 L771.4,649.6 L857.1,480.7 L942.9,514.5 L1028.6,427.1 L1114.3,549.5 L1200.0,540.2 L1200,800 Z" fill="#22414C" opacity="0.60"/><path d="M44,492 Q69,438 86,432 Q103,438 128,492 Q86,462 44,492 Z" fill="#F7FAFC" opacity="0.9"/><path d="M987,487 Q1012,433 1029,427 Q1045,433 1071,487 Q1029,457 987,487 Z" fill="#F7FAFC" opacity="0.9"/><path d="M0,800 L0,585.8 L0.0,585.8 L85.7,594.8 L171.4,665.4 L257.1,629.1 L342.9,725.7 L428.6,718.4 L514.3,636.1 L600.0,581.5 L685.7,630.3 L771.4,596.2 L857.1,589.8 L942.9,706.0 L1028.6,673.9 L1114.3,698.1 L1200.0,600.4 L1200,800 Z" fill="#22414C" opacity="1.00"/><rect x="0" y="688" width="1200" height="112" fill="#4A7C8C8c"/><rect x="0" y="688" width="1200" height="2" fill="#ffffff" opacity="0.25"/><rect width="1200" height="800" fill="#0C1A15" opacity="0.05"/></svg>