<svg xmlns="http://www.w3.org/2000/svg" viewBox="0 0 1200 800" preserveAspectRatio="xMidYMid slice"><defs><linearGradient id="sky2708" x1="0" y1="0" x2="0" y2="1"><stop offset="0%" stop-color="#DDEBF2"/><stop offset="55%" stop-color="#9FC4D6"/><stop offset="100%" stop-color="#4A7C8C"/></linearGradient><radialGradient id="sun2708" cx="50%" cy="50%" r="50%"><stop offset="0%" stop-color="#F4FBFFf2"/><stop offset="100%" stop-color="#F4FBFF00"/></radialGradient></defs><rect width="1200" height="800" fill="url(#sky2708)"/><circle cx="336" cy="192" r="230" fill="url(#sun2708)"/><circle cx="336" cy="192" r="46" fill="#F4FBFFe5"/><path d="M0,800 L0,471.9 L0.0,471.9 L85.7,390.2 L171.4,421.4 L257.1,468.8 L342.9,430.4 L428.6,421.5 L514.3,422.1 L600.0,379.1 L685.7,379.6 L771.4,457.6 L857.1,502.8 L942.9,464.2 L1028.6,472.7 L1114.3,424.6 L1200.0,340.5 L1200,800 Z" fill="#22414C" opacity="0.35"/><path d="M0,800 L0,491.5 L0.0,491.5 L85.7,570.2 L171.4,435.9 L257.1,484.6 L342.9,508.0 L428.6,576.9 L514.3,602.3 L600.0,474.6 L685.7,454.9 L771.4,463.5 L857.1,525.8 L942.9,591.3 L1028.6,557.5 L1114.3,564.9 L1200.0,518.3 L1200,800 Z" fill="#22414C" opacity="0.60"/><path d="M129,496 Q155,442 171,436 Q188,442 213,496 Q171,466 129,496 Z" fill="#F7FAFC" opacity="0.9"/><path d="M0,800 L0,620.4 L0.0,620.4 L85.7,697.3 L171.4,575.5 L257.1,627.8 L342.9,614.2 L428.6,715.3 L514.3,630.6 L600.0,611.1 L685.7,591.2 L771.4,725.5 L857.1,661.9 L942.9,528.3 L1028.6,563.8 L1114.3,639.6 L1200.0,688.9 L1200,800 Z" fill="#22414C" opacity="1.00"/><rect x="0" y="688" width="1200" height="112" fill="#4A7C8C8c"/><rect x="0" y="688" width="1200" height="2" fill="#ffffff" opacity="0.25"/><rect width="1200" height="800" fill="#0C1A15" opacity="0.05"/></svg>