<svg xmlns="http://www.w3.org/2000/svg" viewBox="0 0 1200 800" preserveAspectRatio="xMidYMid slice"><defs><linearGradient id="sky161" x1="0" y1="0" x2="0" y2="1"><stop offset="0%" stop-color="#DDEBF2"/><stop offset="55%" stop-color="#9FC4D6"/><stop offset="100%" stop-color="#4A7C8C"/></linearGradient><radialGradient id="sun161" cx="50%" cy="50%" r="50%"><stop offset="0%" stop-color="#F4FBFFf2"/><stop offset="100%" stop-color="#F4FBFF00"/></radialGradient></defs><rect width="1200" height="800" fill="url(#sky161)"/><circle cx="336" cy="192" r="230" fill="url(#sun161)"/><circle cx="336" cy="192" r="46" fill="#F4FBFFe5"/><path d="M0,800 L0,398.9 L0.0,398.9 L85.7,395.2 L171.4,355.2 L257.1,464.7 L342.9,447.0 L428.6,438.6 L514.3,478.6 L600.0,460.1 L685.7,467.2 L771.4,394.3 L857.1,325.0 L942.9,422.8 L1028.6,406.2 L1114.3,445.3 L1200.0,382.1 L1200,800 Z" fill="#22414C" opacity="0.35"/><path d="M0,800 L0,476.6 L0.0,476.6 L85.7,527.7 L171.4,618.6 L257.1,495.6 L342.9,512.8 L428.6,454.5 L514.3,542.1 L600.0,470.6 L685.7,593.0 L771.4,439.7 L857.1,561.3 L942.9,501.1 L1028.6,492.3 L1114.3,544.1 L1200.0,596.4 L1200,800 Z" fill="#22414C" opacity="0.60"/><path d="M729,500 Q755,446 771,440 Q788,446 813,500 Q771,470 729,500 Z" fill="#F7FAFC" opacity="0.9"/><path d="M0,800 L0,581.4 L0.0,581.4 L85.7,546.4 L171.4,644.8 L257.1,741.4 L342.9,664.6 L428.6,649.9 L514.3,709.9 L600.0,667.5 L685.7,686.9 L771.4,634.8 L857.1,661.7 L942.9,726.7 L1028.6,545.2 L1114.3,652.8 L1200.0,599.9 L1200,800 Z" fill="#22414C" opacity="1.00"/><rect x="0" y="688" width="1200" height="112" fill="#4A7C8C8c"/><rect x="0" y="688" width="1200" height="2" fill="#ffffff" opacity="0.25"/><rect width="1200" height="800" fill="#0C1A15" opacity="0.05"/></svg>