<svg xmlns="http://www.w3.org/2000/svg" viewBox="0 0 1200 800" preserveAspectRatio="xMidYMid slice"><defs><linearGradient id="sky411" x1="0" y1="0" x2="0" y2="1"><stop offset="0%" stop-color="#DDEBF2"/><stop offset="55%" stop-color="#9FC4D6"/><stop offset="100%" stop-color="#4A7C8C"/></linearGradient><radialGradient id="sun411" cx="50%" cy="50%" r="50%"><stop offset="0%" stop-color="#F4FBFFf2"/><stop offset="100%" stop-color="#F4FBFF00"/></radialGradient></defs><rect width="1200" height="800" fill="url(#sky411)"/><circle cx="336" cy="192" r="230" fill="url(#sun411)"/><circle cx="336" cy="192" r="46" fill="#F4FBFFe5"/><path d="M0,800 L0,390.9 L0.0,390.9 L85.7,387.6 L171.4,409.5 L257.1,350.8 L342.9,449.4 L428.6,397.1 L514.3,389.0 L600.0,373.7 L685.7,502.0 L771.4,455.2 L857.1,451.5 L942.9,431.9 L1028.6,419.8 L1114.3,355.1 L1200.0,465.6 L1200,800 Z" fill="#22414C" opacity="0.35"/><path d="M0,800 L0,491.1 L0.0,491.1 L85.7,515.1 L171.4,643.7 L257.1,590.0 L342.9,460.7 L428.6,450.6 L514.3,436.8 L600.0,508.2 L685.7,571.1 L771.4,613.7 L857.1,580.3 L942.9,530.7 L1028.6,459.1 L1114.3,531.2 L1200.0,626.7 L1200,800 Z" fill="#22414C" opacity="0.60"/><path d="M472,497 Q497,443 514,437 Q531,443 556,497 Q514,467 472,497 Z" fill="#F7FAFC" opacity="0.9"/><path d="M0,800 L0,732.6 L0.0,732.6 L85.7,666.0 L171.4,653.3 L257.1,589.9 L342.9,643.0 L428.6,641.3 L514.3,547.8 L600.0,586.9 L685.7,652.0 L771.4,656.0 L857.1,556.1 L942.9,638.8 L1028.6,575.6 L1114.3,544.3 L1200.0,587.6 L1200,800 Z" fill="#22414C" opacity="1.00"/><rect x="0" y="688" width="1200" height="112" fill="#4A7C8C8c"/><rect x="0" y="688" width="1200" height="2" fill="#ffffff" opacity="0.25"/><rect width="1200" height="800" fill="#0C1A15" opacity="0.05"/></svg>