<svg xmlns="http://www.w3.org/2000/svg" viewBox="0 0 1200 800" preserveAspectRatio="xMidYMid slice"><defs><linearGradient id="sky3924" x1="0" y1="0" x2="0" y2="1"><stop offset="0%" stop-color="#F3E6C8"/><stop offset="55%" stop-color="#CDE0A8"/><stop offset="100%" stop-color="#6E9A5A"/></linearGradient><radialGradient id="sun3924" cx="50%" cy="50%" r="50%"><stop offset="0%" stop-color="#FFF4D6f2"/><stop offset="100%" stop-color="#FFF4D600"/></radialGradient></defs><rect width="1200" height="800" fill="url(#sky3924)"/><circle cx="888" cy="224" r="230" fill="url(#sun3924)"/><circle cx="888" cy="224" r="46" fill="#FFF4D6e5"/><path d="M0,800 L0,372.2 L0.0,372.2 L85.7,345.4 L171.4,445.7 L257.1,403.9 L342.9,368.2 L428.6,379.7 L514.3,385.5 L600.0,450.2 L685.7,493.4 L771.4,462.8 L857.1,402.9 L942.9,420.5 L1028.6,442.8 L1114.3,480.3 L1200.0,388.3 L1200,800 Z" fill="#3C5A2E" opacity="0.35"/><path d="M0,800 L0,548.0 L0.0,548.0 L85.7,470.4 L171.4,483.6 L257.1,454.9 L342.9,550.7 L428.6,567.5 L514.3,492.6 L600.0,571.2 L685.7,507.9 L771.4,438.2 L857.1,415.1 L942.9,509.9 L1028.6,481.3 L1114.3,575.3 L1200.0,458.4 L1200,800 Z" fill="#3C5A2E" opacity="0.60"/><path d="M0,800 L0,565.9 L0.0,565.9 L85.7,582.9 L171.4,679.8 L257.1,692.1 L342.9,633.5 L428.6,684.3 L514.3,626.8 L600.0,659.8 L685.7,582.0 L771.4,661.1 L857.1,687.3 L942.9,682.6 L1028.6,566.6 L1114.3,671.1 L1200.0,600.6 L1200,800 Z" fill="#3C5A2E" opacity="1.00"/><rect width="1200" height="800" fill="#0C1A15" opacity="0.05"/></svg>