<svg xmlns="http://www.w3.org/2000/svg" viewBox="0 0 1200 800" preserveAspectRatio="xMidYMid slice"><defs><linearGradient id="sky2733" x1="0" y1="0" x2="0" y2="1"><stop offset="0%" stop-color="#F3E6C8"/><stop offset="55%" stop-color="#CDE0A8"/><stop offset="100%" stop-color="#6E9A5A"/></linearGradient><radialGradient id="sun2733" cx="50%" cy="50%" r="50%"><stop offset="0%" stop-color="#FFF4D6f2"/><stop offset="100%" stop-color="#FFF4D600"/></radialGradient></defs><rect width="1200" height="800" fill="url(#sky2733)"/><circle cx="888" cy="224" r="230" fill="url(#sun2733)"/><circle cx="888" cy="224" r="46" fill="#FFF4D6e5"/><path d="M0,800 L0,441.5 L0.0,441.5 L85.7,408.0 L171.4,496.0 L257.1,462.8 L342.9,378.7 L428.6,348.5 L514.3,382.6 L600.0,443.4 L685.7,402.1 L771.4,454.6 L857.1,360.6 L942.9,406.7 L1028.6,509.9 L1114.3,476.8 L1200.0,459.3 L1200,800 Z" fill="#3C5A2E" opacity="0.35"/><path d="M0,800 L0,460.5 L0.0,460.5 L85.7,488.9 L171.4,538.3 L257.1,611.9 L342.9,609.7 L428.6,607.9 L514.3,598.2 L600.0,461.1 L685.7,517.7 L771.4,495.2 L857.1,584.0 L942.9,618.6 L1028.6,533.9 L1114.3,464.0 L1200.0,448.5 L1200,800 Z" fill="#3C5A2E" opacity="0.60"/><path d="M0,800 L0,701.2 L0.0,701.2 L85.7,658.7 L171.4,591.2 L257.1,587.5 L342.9,641.7 L428.6,735.0 L514.3,642.7 L600.0,649.8 L685.7,614.4 L771.4,629.7 L857.1,567.7 L942.9,641.1 L1028.6,678.8 L1114.3,642.0 L1200.0,654.4 L1200,800 Z" fill="#3C5A2E" opacity="1.00"/><rect width="1200" height="800" fill="#0C1A15" opacity="0.05"/></svg>