<svg xmlns="http://www.w3.org/2000/svg" viewBox="0 0 1200 800" preserveAspectRatio="xMidYMid slice"><defs><linearGradient id="sky8367" x1="0" y1="0" x2="0" y2="1"><stop offset="0%" stop-color="#F3E6C8"/><stop offset="55%" stop-color="#CDE0A8"/><stop offset="100%" stop-color="#6E9A5A"/></linearGradient><radialGradient id="sun8367" cx="50%" cy="50%" r="50%"><stop offset="0%" stop-color="#FFF4D6f2"/><stop offset="100%" stop-color="#FFF4D600"/></radialGradient></defs><rect width="1200" height="800" fill="url(#sky8367)"/><circle cx="888" cy="224" r="230" fill="url(#sun8367)"/><circle cx="888" cy="224" r="46" fill="#FFF4D6e5"/><path d="M0,800 L0,325.8 L0.0,325.8 L85.7,434.7 L171.4,384.6 L257.1,476.7 L342.9,454.5 L428.6,397.8 L514.3,416.0 L600.0,477.1 L685.7,425.5 L771.4,443.8 L857.1,453.5 L942.9,331.4 L1028.6,382.3 L1114.3,386.2 L1200.0,478.2 L1200,800 Z" fill="#3C5A2E" opacity="0.35"/><path d="M0,800 L0,612.3 L0.0,612.3 L85.7,525.0 L171.4,547.6 L257.1,438.9 L342.9,441.7 L428.6,484.0 L514.3,612.7 L600.0,473.1 L685.7,478.5 L771.4,443.8 L857.1,431.7 L942.9,599.1 L1028.6,577.5 L1114.3,462.2 L1200.0,568.7 L1200,800 Z" fill="#3C5A2E" opacity="0.60"/><path d="M0,800 L0,624.7 L0.0,624.7 L85.7,584.5 L171.4,694.5 L257.1,660.2 L342.9,650.6 L428.6,670.6 L514.3,585.2 L600.0,634.1 L685.7,618.3 L771.4,644.1 L857.1,622.5 L942.9,584.8 L1028.6,676.2 L1114.3,649.2 L1200.0,720.5 L1200,800 Z" fill="#3C5A2E" opacity="1.00"/><rect width="1200" height="800" fill="#0C1A15" opacity="0.05"/></svg>