<svg xmlns="http://www.w3.org/2000/svg" viewBox="0 0 1200 800" preserveAspectRatio="xMidYMid slice"><defs><linearGradient id="sky1792" x1="0" y1="0" x2="0" y2="1"><stop offset="0%" stop-color="#F3E6C8"/><stop offset="55%" stop-color="#CDE0A8"/><stop offset="100%" stop-color="#6E9A5A"/></linearGradient><radialGradient id="sun1792" cx="50%" cy="50%" r="50%"><stop offset="0%" stop-color="#FFF4D6f2"/><stop offset="100%" stop-color="#FFF4D600"/></radialGradient></defs><rect width="1200" height="800" fill="url(#sky1792)"/><circle cx="888" cy="224" r="230" fill="url(#sun1792)"/><circle cx="888" cy="224" r="46" fill="#FFF4D6e5"/><path d="M0,800 L0,476.0 L0.0,476.0 L85.7,426.7 L171.4,487.4 L257.1,390.5 L342.9,343.6 L428.6,425.6 L514.3,395.9 L600.0,439.8 L685.7,456.2 L771.4,464.4 L857.1,477.0 L942.9,452.3 L1028.6,419.9 L1114.3,365.4 L1200.0,411.9 L1200,800 Z" fill="#3C5A2E" opacity="0.35"/><path d="M0,800 L0,565.9 L0.0,565.9 L85.7,428.6 L171.4,527.5 L257.1,496.6 L342.9,590.2 L428.6,470.1 L514.3,510.9 L600.0,585.8 L685.7,472.5 L771.4,518.9 L857.1,453.7 L942.9,564.9 L1028.6,411.8 L1114.3,606.4 L1200.0,625.9 L1200,800 Z" fill="#3C5A2E" opacity="0.60"/><path d="M0,800 L0,663.9 L0.0,663.9 L85.7,673.1 L171.4,675.3 L257.1,547.5 L342.9,613.5 L428.6,584.0 L514.3,604.1 L600.0,657.8 L685.7,666.6 L771.4,634.3 L857.1,589.7 L942.9,626.1 L1028.6,673.7 L1114.3,702.7 L1200.0,538.6 L1200,800 Z" fill="#3C5A2E" opacity="1.00"/><rect width="1200" height="800" fill="#0C1A15" opacity="0.05"/></svg>