<svg xmlns="http://www.w3.org/2000/svg" viewBox="0 0 1200 800" preserveAspectRatio="xMidYMid slice"><defs><linearGradient id="sky2448" x1="0" y1="0" x2="0" y2="1"><stop offset="0%" stop-color="#EAF2F8"/><stop offset="55%" stop-color="#CBDDEA"/><stop offset="100%" stop-color="#8FB0C6"/></linearGradient><radialGradient id="sun2448" cx="50%" cy="50%" r="50%"><stop offset="0%" stop-color="#FFFFFFf2"/><stop offset="100%" stop-color="#FFFFFF00"/></radialGradient></defs><rect width="1200" height="800" fill="url(#sky2448)"/><circle cx="840" cy="176" r="230" fill="url(#sun2448)"/><circle cx="840" cy="176" r="46" fill="#FFFFFFe5"/><path d="M0,800 L0,442.3 L0.0,442.3 L85.7,343.5 L171.4,444.7 L257.1,430.0 L342.9,474.8 L428.6,434.7 L514.3,439.8 L600.0,394.9 L685.7,438.5 L771.4,337.1 L857.1,444.4 L942.9,434.8 L1028.6,377.4 L1114.3,385.6 L1200.0,469.2 L1200,800 Z" fill="#4A6076" opacity="0.35"/><path d="M0,800 L0,500.8 L0.0,500.8 L85.7,614.2 L171.4,549.7 L257.1,507.2 L342.9,421.1 L428.6,573.3 L514.3,521.5 L600.0,480.7 L685.7,498.3 L771.4,411.2 L857.1,570.9 L942.9,514.5 L1028.6,645.7 L1114.3,575.7 L1200.0,528.9 L1200,800 Z" fill="#4A6076" opacity="0.60"/><path d="M301,481 Q326,427 343,421 Q360,427 385,481 Q343,451 301,481 Z" fill="#F7FAFC" opacity="0.9"/><path d="M729,471 Q755,417 771,411 Q788,417 813,471 Q771,441 729,471 Z" fill="#F7FAFC" opacity="0.9"/><path d="M0,800 L0,582.0 L0.0,582.0 L85.7,630.2 L171.4,594.5 L257.1,710.9 L342.9,623.9 L428.6,592.8 L514.3,645.7 L600.0,610.0 L685.7,632.2 L771.4,667.8 L857.1,606.4 L942.9,650.4 L1028.6,644.4 L1114.3,689.7 L1200.0,649.0 L1200,800 Z" fill="#4A6076" opacity="1.00"/><rect width="1200" height="800" fill="#0C1A15" opacity="0.05"/></svg>