<svg xmlns="http://www.w3.org/2000/svg" viewBox="0 0 1200 800" preserveAspectRatio="xMidYMid slice"><defs><linearGradient id="sky2698" x1="0" y1="0" x2="0" y2="1"><stop offset="0%" stop-color="#EAF2F8"/><stop offset="55%" stop-color="#CBDDEA"/><stop offset="100%" stop-color="#8FB0C6"/></linearGradient><radialGradient id="sun2698" cx="50%" cy="50%" r="50%"><stop offset="0%" stop-color="#FFFFFFf2"/><stop offset="100%" stop-color="#FFFFFF00"/></radialGradient></defs><rect width="1200" height="800" fill="url(#sky2698)"/><circle cx="840" cy="176" r="230" fill="url(#sun2698)"/><circle cx="840" cy="176" r="46" fill="#FFFFFFe5"/><path d="M0,800 L0,393.3 L0.0,393.3 L85.7,424.1 L171.4,439.5 L257.1,337.3 L342.9,369.7 L428.6,456.2 L514.3,466.0 L600.0,435.6 L685.7,424.9 L771.4,415.3 L857.1,462.3 L942.9,327.0 L1028.6,443.4 L1114.3,381.2 L1200.0,382.5 L1200,800 Z" fill="#4A6076" opacity="0.35"/><path d="M0,800 L0,582.8 L0.0,582.8 L85.7,624.3 L171.4,512.9 L257.1,539.4 L342.9,539.3 L428.6,571.7 L514.3,597.2 L600.0,576.5 L685.7,526.8 L771.4,573.2 L857.1,432.7 L942.9,562.9 L1028.6,494.8 L1114.3,577.3 L1200.0,480.2 L1200,800 Z" fill="#4A6076" opacity="0.60"/><path d="M815,493 Q840,439 857,433 Q874,439 899,493 Q857,463 815,493 Z" fill="#F7FAFC" opacity="0.9"/><path d="M0,800 L0,678.8 L0.0,678.8 L85.7,629.0 L171.4,590.1 L257.1,647.7 L342.9,595.3 L428.6,672.0 L514.3,661.4 L600.0,605.5 L685.7,627.7 L771.4,659.9 L857.1,694.3 L942.9,671.3 L1028.6,715.4 L1114.3,654.5 L1200.0,660.2 L1200,800 Z" fill="#4A6076" opacity="1.00"/><rect width="1200" height="800" fill="#0C1A15" opacity="0.05"/></svg>