<svg xmlns="http://www.w3.org/2000/svg" viewBox="0 0 1200 800" preserveAspectRatio="xMidYMid slice"><defs><linearGradient id="sky151" x1="0" y1="0" x2="0" y2="1"><stop offset="0%" stop-color="#EAF2F8"/><stop offset="55%" stop-color="#CBDDEA"/><stop offset="100%" stop-color="#8FB0C6"/></linearGradient><radialGradient id="sun151" cx="50%" cy="50%" r="50%"><stop offset="0%" stop-color="#FFFFFFf2"/><stop offset="100%" stop-color="#FFFFFF00"/></radialGradient></defs><rect width="1200" height="800" fill="url(#sky151)"/><circle cx="840" cy="176" r="230" fill="url(#sun151)"/><circle cx="840" cy="176" r="46" fill="#FFFFFFe5"/><path d="M0,800 L0,450.6 L0.0,450.6 L85.7,486.4 L171.4,507.1 L257.1,455.4 L342.9,378.5 L428.6,467.3 L514.3,447.8 L600.0,400.5 L685.7,397.7 L771.4,432.3 L857.1,432.4 L942.9,486.9 L1028.6,468.2 L1114.3,442.9 L1200.0,411.9 L1200,800 Z" fill="#4A6076" opacity="0.35"/><path d="M0,800 L0,472.3 L0.0,472.3 L85.7,571.0 L171.4,477.9 L257.1,595.4 L342.9,552.7 L428.6,462.7 L514.3,506.0 L600.0,543.8 L685.7,495.5 L771.4,573.6 L857.1,578.8 L942.9,460.9 L1028.6,552.4 L1114.3,483.3 L1200.0,574.4 L1200,800 Z" fill="#4A6076" opacity="0.60"/><path d="M0,800 L0,655.3 L0.0,655.3 L85.7,627.9 L171.4,563.3 L257.1,583.9 L342.9,598.2 L428.6,722.5 L514.3,571.4 L600.0,564.1 L685.7,581.8 L771.4,609.1 L857.1,664.0 L942.9,668.2 L1028.6,631.3 L1114.3,651.4 L1200.0,597.2 L1200,800 Z" fill="#4A6076" opacity="1.00"/><rect width="1200" height="800" fill="#0C1A15" opacity="0.05"/></svg>