<svg xmlns="http://www.w3.org/2000/svg" viewBox="0 0 1200 800" preserveAspectRatio="xMidYMid slice"><defs><linearGradient id="sky1507" x1="0" y1="0" x2="0" y2="1"><stop offset="0%" stop-color="#EAF2F8"/><stop offset="55%" stop-color="#CBDDEA"/><stop offset="100%" stop-color="#8FB0C6"/></linearGradient><radialGradient id="sun1507" cx="50%" cy="50%" r="50%"><stop offset="0%" stop-color="#FFFFFFf2"/><stop offset="100%" stop-color="#FFFFFF00"/></radialGradient></defs><rect width="1200" height="800" fill="url(#sky1507)"/><circle cx="840" cy="176" r="230" fill="url(#sun1507)"/><circle cx="840" cy="176" r="46" fill="#FFFFFFe5"/><path d="M0,800 L0,328.7 L0.0,328.7 L85.7,391.6 L171.4,434.7 L257.1,427.5 L342.9,511.7 L428.6,367.3 L514.3,413.3 L600.0,449.5 L685.7,425.7 L771.4,458.8 L857.1,378.1 L942.9,381.8 L1028.6,478.0 L1114.3,377.0 L1200.0,424.3 L1200,800 Z" fill="#4A6076" opacity="0.35"/><path d="M0,800 L0,541.9 L0.0,541.9 L85.7,507.9 L171.4,529.2 L257.1,432.9 L342.9,522.3 L428.6,641.8 L514.3,485.0 L600.0,590.7 L685.7,470.3 L771.4,461.7 L857.1,586.4 L942.9,548.9 L1028.6,527.8 L1114.3,420.7 L1200.0,413.0 L1200,800 Z" fill="#4A6076" opacity="0.60"/><path d="M215,493 Q240,439 257,433 Q274,439 299,493 Q257,463 215,493 Z" fill="#F7FAFC" opacity="0.9"/><path d="M1072,481 Q1097,427 1114,421 Q1131,427 1156,481 Q1114,451 1072,481 Z" fill="#F7FAFC" opacity="0.9"/><path d="M1158,473 Q1183,419 1200,413 Q1217,419 1242,473 Q1200,443 1158,473 Z" fill="#F7FAFC" opacity="0.9"/><path d="M0,800 L0,617.0 L0.0,617.0 L85.7,618.8 L171.4,606.1 L257.1,600.7 L342.9,620.2 L428.6,695.8 L514.3,649.7 L600.0,675.5 L685.7,637.1 L771.4,693.5 L857.1,716.0 L942.9,627.2 L1028.6,589.6 L1114.3,680.0 L1200.0,637.8 L1200,800 Z" fill="#4A6076" opacity="1.00"/><rect width="1200" height="800" fill="#0C1A15" opacity="0.05"/></svg>